<svg width="152" height="81" viewBox="0 0 152 81" xmlns="http://www.w3.org/2000/svg"><title>duplicate promotion</title><g stroke="#7191A6" stroke-width="1.5" fill="none" fill-rule="evenodd" stroke-linejoin="round"><g stroke-linecap="round"><path d="M64.226 12h3.691v67.934H7v-3.179"/><path d="M60 5v67H1V5"/><path d="M4 73v3h60V8h-3"/><path d="M10.511 5h-9.51v13h59V5h-9.883M45.84 5.214h-30.7"/><path d="M12.77 13.735a1.926 1.926 0 0 1-1.927-1.926V2.926a1.926 1.926 0 1 1 3.852 0v8.883a1.926 1.926 0 0 1-1.926 1.926zM48.292 13.735a1.926 1.926 0 0 1-1.926-1.926V2.926a1.926 1.926 0 1 1 3.852 0v8.883a1.926 1.926 0 0 1-1.926 1.926z"/><g><path d="M11 30.347l1.771 3.416L20.438 27M26.717 30.347l1.771 3.416L36.155 27M42.434 30.347l1.771 3.416L51.872 27M11 43.52l1.771 3.416 7.667-6.763M26.717 43.52l1.771 3.416 7.667-6.763M42.434 43.52l1.771 3.416 7.667-6.763M11 56.694l1.771 3.416 7.667-6.763M26.717 56.694l1.771 3.416 7.667-6.763M42.434 56.694l1.771 3.416 7.667-6.763"/></g></g><g stroke-dasharray="4,2"><path d="M147.226 12h3.691v67.934H90v-3.179"/><path d="M143 5v67H84V5"/><path d="M87 73v3h60V8h-3"/><path d="M93.511 5h-9.51v13h59V5h-9.883"/></g><path d="M128.84 5.214h-30.7" stroke-linecap="round" stroke-dasharray="4,2"/><path d="M95.77 13.735a1.926 1.926 0 0 1-1.927-1.926V2.926a1.926 1.926 0 1 1 3.852 0v8.883a1.926 1.926 0 0 1-1.926 1.926zM131.292 13.735a1.926 1.926 0 0 1-1.926-1.926V2.926a1.926 1.926 0 1 1 3.852 0v8.883a1.926 1.926 0 0 1-1.926 1.926z" stroke-linecap="round" stroke-dasharray="2,3"/><g stroke-linecap="round"><path d="M94 30.347l1.771 3.416L103.438 27M109.717 30.347l1.771 3.416L119.155 27M125.434 30.347l1.771 3.416L134.872 27M94 43.52l1.771 3.416 7.667-6.763M109.717 43.52l1.771 3.416 7.667-6.763M125.434 43.52l1.771 3.416 7.667-6.763M94 56.694l1.771 3.416 7.667-6.763M109.717 56.694l1.771 3.416 7.667-6.763M125.434 56.694l1.771 3.416 7.667-6.763"/></g></g></svg>