<svg width="184" height="164" viewBox="0 0 184 164" xmlns="http://www.w3.org/2000/svg" xmlns:xlink="http://www.w3.org/1999/xlink"><title>Promotions</title><defs><path d="M37.375 98H29V32H0V0h77v46.685a5.474 5.474 0 0 0-6.02 1.195l-1.52 1.538a5.472 5.472 0 0 1-5.728 1.307L61.695 50a5.472 5.472 0 0 0-7.01 3.377l-.704 2.045a5.47 5.47 0 0 1-4.592 3.663l-2.15.23a5.472 5.472 0 0 0-4.853 6.084l.255 2.147a5.473 5.473 0 0 1-2.549 5.293l-1.838 1.14a5.472 5.472 0 0 0-1.732 7.587l1.161 1.825a5.468 5.468 0 0 1 0 5.874l-1.16 1.825A5.474 5.474 0 0 0 37.374 98z" id="a"/><path d="M26.672 81H0V0h81v33.96h-9.331v29.267H26.672V81z" id="c"/><path id="e" d="M.171 0h71.588v37H.171z"/></defs><g fill="none" fill-rule="evenodd"><g transform="translate(69 30)"><mask id="b" fill="#fff"><use xlink:href="#a"/></mask><path stroke="#7191A6" stroke-width="1.5" stroke-linecap="round" stroke-linejoin="round" mask="url(#b)" d="M1.669 96.543h73.202V2.96H1.669z"/></g><g transform="translate(-1 -1)"><mask id="d" fill="#fff"><use xlink:href="#c"/></mask><g mask="url(#d)"><path d="M33.128 22.586c.158 0 .3-.026.424-.078a.858.858 0 0 0 .316-.225.996.996 0 0 0 .197-.358c.046-.141.068-.301.068-.48V18.43h1.18v3.014c0 .312-.05.599-.151.86-.101.26-.246.485-.435.674a1.962 1.962 0 0 1-.688.44c-.27.104-.574.157-.911.157-.34 0-.645-.053-.916-.157-.27-.105-.499-.252-.688-.44a1.907 1.907 0 0 1-.433-.675c-.1-.26-.15-.547-.15-.859V18.43h1.18v3.01c0 .18.023.34.069.481.045.14.11.26.197.36a.85.85 0 0 0 .316.227c.125.052.266.078.425.078zm4.635-.768v1.7h-1.18V18.43h1.795c.358 0 .666.043.923.128.258.085.47.202.636.35.167.15.29.325.369.528.079.203.118.421.118.657 0 .253-.04.486-.122.698a1.402 1.402 0 0 1-.374.545c-.167.151-.38.27-.637.355a2.922 2.922 0 0 1-.913.127h-.615zm0-.89h.615c.307 0 .528-.074.663-.22.135-.147.203-.352.203-.615a.92.92 0 0 0-.053-.318.647.647 0 0 0-.159-.246.714.714 0 0 0-.268-.16 1.19 1.19 0 0 0-.386-.055h-.615v1.613zm9.32-2.498v.936H45.65v4.153h-1.18v-4.153h-1.432v-.936h4.044zm6.01 2.543c0 .368-.063.71-.19 1.027a2.475 2.475 0 0 1-.536.826c-.23.234-.508.417-.833.55-.324.132-.685.199-1.08.199-.396 0-.757-.067-1.083-.2a2.474 2.474 0 0 1-.837-.55 2.461 2.461 0 0 1-.538-.825 2.735 2.735 0 0 1-.19-1.027c0-.368.063-.71.19-1.027.127-.317.307-.592.538-.824.232-.233.51-.416.837-.549.326-.132.687-.199 1.082-.199.396 0 .757.067 1.081.201.325.134.603.317.833.55.231.233.41.508.537.824.126.317.19.658.19 1.024zm-1.208 0a2.2 2.2 0 0 0-.097-.68 1.439 1.439 0 0 0-.281-.511 1.213 1.213 0 0 0-.45-.322 1.545 1.545 0 0 0-.604-.111c-.228 0-.43.037-.609.111a1.21 1.21 0 0 0-.45.322c-.123.14-.217.31-.282.511a2.2 2.2 0 0 0-.098.68c0 .254.033.481.098.683.065.201.16.372.281.511.123.14.273.247.451.32.178.073.381.11.61.11.225 0 .427-.037.604-.11.177-.073.326-.18.449-.32.122-.14.215-.31.28-.511.066-.202.098-.43.098-.683zM28.686 31.547a.746.746 0 0 1-.222.549c-.147.147-.38.221-.696.221h-8.392l-1.393 7.736a17.13 17.13 0 0 1 2.082-.402 15.21 15.21 0 0 1 1.885-.122c1.202 0 2.261.172 3.18.516.917.344 1.685.825 2.302 1.442a6.062 6.062 0 0 1 1.401 2.204c.317.853.475 1.781.475 2.787 0 1.223-.213 2.319-.639 3.286a7.412 7.412 0 0 1-1.729 2.466 7.533 7.533 0 0 1-2.548 1.557c-.973.36-2.005.541-3.098.541a9.433 9.433 0 0 1-1.836-.172 10.586 10.586 0 0 1-1.639-.459 8.843 8.843 0 0 1-1.409-.664 9.688 9.688 0 0 1-1.13-.77l.458-.64a.536.536 0 0 1 .475-.245c.142 0 .347.082.615.246.268.164.612.344 1.032.54.421.197.918.378 1.492.542.574.164 1.243.245 2.008.245.896 0 1.731-.144 2.507-.434a5.88 5.88 0 0 0 2.024-1.254c.574-.546 1.022-1.22 1.344-2.024.323-.803.484-1.712.484-2.729 0-.83-.123-1.595-.37-2.294a4.706 4.706 0 0 0-1.114-1.795c-.497-.497-1.125-.885-1.884-1.163-.76-.279-1.653-.418-2.68-.418-.623 0-1.284.049-1.983.147-.7.099-1.442.257-2.23.475l-1.015-.31 1.819-10.277h10.424v.672zM48.68 42.462c0 2.033-.218 3.792-.655 5.278-.437 1.486-1.033 2.715-1.787 3.687-.753.973-1.636 1.697-2.646 2.172a7.512 7.512 0 0 1-3.237.713 7.458 7.458 0 0 1-3.229-.713c-1.005-.475-1.885-1.2-2.639-2.172-.754-.972-1.346-2.201-1.778-3.687-.432-1.486-.647-3.245-.647-5.278 0-2.032.215-3.791.647-5.277.432-1.486 1.024-2.715 1.778-3.688.754-.972 1.634-1.696 2.639-2.171a7.458 7.458 0 0 1 3.229-.713c1.147 0 2.226.237 3.237.713 1.01.475 1.893 1.199 2.646 2.171.754.973 1.35 2.202 1.787 3.688.437 1.486.655 3.245.655 5.277zm-1.638 0c0-1.88-.18-3.485-.541-4.818-.36-1.333-.844-2.423-1.45-3.27-.607-.847-1.317-1.467-2.131-1.86a5.823 5.823 0 0 0-2.565-.59c-.896 0-1.749.197-2.557.59-.809.393-1.519 1.013-2.13 1.86-.613.847-1.099 1.937-1.46 3.27-.36 1.333-.54 2.939-.54 4.818 0 1.89.18 3.5.54 4.827.361 1.327.847 2.415 1.46 3.261.611.847 1.321 1.465 2.13 1.852.808.388 1.66.582 2.557.582.896 0 1.75-.194 2.565-.582.814-.387 1.524-1.005 2.13-1.852.607-.846 1.09-1.934 1.45-3.261.361-1.328.542-2.937.542-4.827zM57.992 34.05c0 .553-.085 1.048-.256 1.487-.172.438-.4.807-.687 1.107-.287.3-.621.528-1.004.686-.382.159-.78.238-1.195.238-.448 0-.862-.08-1.24-.238a2.877 2.877 0 0 1-.994-.686 3.138 3.138 0 0 1-.662-1.107 4.363 4.363 0 0 1-.237-1.488c0-.566.079-1.07.237-1.512.158-.441.379-.814.662-1.117.283-.303.614-.534.993-.692a3.188 3.188 0 0 1 1.24-.237c.442 0 .855.08 1.24.237.386.158.72.39 1 .692.28.303.5.676.661 1.117.162.441.242.946.242 1.512zm-1.373 0c0-.436-.046-.805-.139-1.108a2.12 2.12 0 0 0-.38-.746 1.409 1.409 0 0 0-.564-.42 1.832 1.832 0 0 0-.686-.129c-.244 0-.473.043-.687.129-.214.086-.4.226-.559.42a2.11 2.11 0 0 0-.37.746 3.975 3.975 0 0 0-.134 1.107c0 .428.045.792.134 1.092.089.3.212.544.37.732.158.187.345.323.559.405.214.082.443.123.687.123.243 0 .472-.04.686-.123a1.4 1.4 0 0 0 .564-.405c.161-.188.288-.432.38-.732.093-.3.139-.664.139-1.092zm6.325-3.065c.086-.112.176-.199.272-.262a.685.685 0 0 1 .38-.094h1.265L54.514 44.506a.794.794 0 0 1-.238.207.646.646 0 0 1-.326.08h-1.304l10.298-13.808zm2.876 10.467a4.02 4.02 0 0 1-.257 1.482c-.171.435-.4.803-.687 1.102-.286.3-.619.53-.998.687a3.061 3.061 0 0 1-1.19.237c-.449 0-.862-.079-1.241-.237a2.877 2.877 0 0 1-.994-.687 3.145 3.145 0 0 1-.662-1.102 4.32 4.32 0 0 1-.237-1.482c0-.567.08-1.072.237-1.517.158-.445.38-.819.662-1.122.284-.303.615-.534.994-.692a3.188 3.188 0 0 1 1.24-.237c.442 0 .853.079 1.236.237.382.158.714.389.998.692.283.303.504.677.662 1.122.158.445.237.95.237 1.517zm-1.364 0c0-.435-.046-.806-.138-1.112a2.064 2.064 0 0 0-.38-.746 1.427 1.427 0 0 0-.564-.415 1.832 1.832 0 0 0-.687-.129c-.244 0-.473.043-.687.129-.214.085-.4.224-.558.415-.158.19-.282.44-.37.746a4.029 4.029 0 0 0-.134 1.112c0 .428.044.79.133 1.087.09.297.213.539.37.726.159.188.345.323.56.406.213.082.442.123.686.123.244 0 .473-.04.687-.123a1.4 1.4 0 0 0 .563-.406 2.02 2.02 0 0 0 .38-.726c.093-.296.14-.659.14-1.087zM56.946 51.156c0 .368-.064.71-.19 1.027a2.475 2.475 0 0 1-.537.826c-.23.234-.508.418-.833.55-.325.133-.685.2-1.081.2-.396 0-.757-.067-1.083-.2a2.474 2.474 0 0 1-.836-.55 2.461 2.461 0 0 1-.538-.826 2.735 2.735 0 0 1-.19-1.027c0-.368.063-.71.19-1.026.127-.317.306-.592.538-.825.231-.233.51-.415.836-.548.326-.133.687-.2 1.083-.2.396 0 .756.068 1.081.202.325.134.603.317.833.55.23.233.41.507.536.824.127.317.19.658.19 1.023zm-1.209 0a2.2 2.2 0 0 0-.098-.679 1.439 1.439 0 0 0-.28-.512 1.213 1.213 0 0 0-.45-.321 1.545 1.545 0 0 0-.604-.112c-.228 0-.431.038-.61.112a1.21 1.21 0 0 0-.45.321c-.122.14-.216.31-.281.512a2.2 2.2 0 0 0-.098.68c0 .253.033.48.098.682.065.202.159.372.281.512.122.14.272.246.45.32.179.073.382.11.61.11.226 0 .427-.037.604-.11.177-.074.327-.18.45-.32.121-.14.215-.31.28-.512.065-.201.098-.429.098-.683zm5.13-2.542v.908H58.78v1.289h1.74v.911h-1.74v1.98H57.59v-5.088h3.276zm3.971 0v.908H62.75v1.289h1.74v.911h-1.74v1.98h-1.188v-5.088h3.276z" fill="#7191A6"/><path d="M80.23 40.99c0 21.672-17.567 39.24-39.24 39.24-21.671 0-39.24-17.568-39.24-39.24S19.319 1.75 40.99 1.75c21.673 0 39.24 17.568 39.24 39.24z" stroke="#7191A6" stroke-width="1.5"/></g></g><path stroke="#7191A6" stroke-width="1.5" d="M25.672 163.227h72.087v-101H25.672z"/><path d="M38.365 78.21c.063.117.12.24.174.366.053.126.105.254.156.382.052-.132.105-.262.16-.39.055-.129.113-.252.176-.369l2.354-4.405a.61.61 0 0 1 .09-.132.28.28 0 0 1 .105-.072.461.461 0 0 1 .13-.027c.047-.004.104-.006.17-.006h1.116v7.953h-1.303v-5.137a6.524 6.524 0 0 1 .033-.66l-2.404 4.51a.634.634 0 0 1-.214.24.555.555 0 0 1-.308.085h-.204a.555.555 0 0 1-.308-.086.634.634 0 0 1-.214-.239l-2.437-4.526c.015.12.025.239.03.354.006.116.009.223.009.322v5.137h-1.304v-7.953h1.117c.066 0 .123.002.17.006.048.003.091.012.13.027a.306.306 0 0 1 .107.072.555.555 0 0 1 .093.132l2.376 4.416zm7.607-2.343v5.643h-1.359v-5.643h1.359zm.203-1.644a.774.774 0 0 1-.071.33.907.907 0 0 1-.468.453.852.852 0 0 1-.673 0 .881.881 0 0 1-.457-.453.852.852 0 0 1 0-.671.873.873 0 0 1 .457-.46.852.852 0 0 1 .674 0 .887.887 0 0 1 .468.46c.046.106.07.22.07.34zm5.302 7.287c-.176 0-.291-.082-.346-.247l-.11-.545c-.118.132-.24.251-.369.358a2.33 2.33 0 0 1-.415.275 2.164 2.164 0 0 1-1.031.242c-.308 0-.59-.065-.847-.193a1.887 1.887 0 0 1-.663-.558 2.676 2.676 0 0 1-.429-.905 4.57 4.57 0 0 1-.151-1.232c0-.418.057-.807.17-1.166.114-.36.277-.671.49-.935.212-.264.467-.47.764-.619.297-.148.631-.222 1.001-.222.316 0 .585.05.809.15.223.102.423.236.6.405v-2.981h1.358v8.173h-.83zm-1.81-.995c.283 0 .523-.06.721-.176a2.14 2.14 0 0 0 .561-.501v-2.53a1.337 1.337 0 0 0-.503-.396 1.484 1.484 0 0 0-.586-.115c-.205 0-.391.038-.558.115a1.092 1.092 0 0 0-.423.35 1.71 1.71 0 0 0-.267.593 3.41 3.41 0 0 0-.094.85c0 .33.027.61.08.839.053.229.13.416.228.56a.87.87 0 0 0 .363.314c.143.064.303.097.479.097zm4.11.995v-5.643h.83c.176 0 .291.083.346.248l.094.445c.113-.117.234-.224.36-.319.127-.095.26-.178.402-.247.14-.07.292-.123.453-.16.162-.037.338-.055.528-.055.308 0 .581.052.82.157.238.104.437.25.597.44.16.189.28.414.363.676.082.262.123.551.123.867v3.591h-1.358v-3.591c0-.345-.08-.612-.24-.8-.159-.19-.398-.284-.717-.284-.235 0-.455.053-.66.16-.206.106-.4.25-.583.434v4.081h-1.359zm7.7-5.643v5.643h-1.36v-5.643h1.36zm.203-1.644a.774.774 0 0 1-.072.33.907.907 0 0 1-.467.453.852.852 0 0 1-.674 0 .881.881 0 0 1-.456-.453.852.852 0 0 1 0-.671.873.873 0 0 1 .456-.46.852.852 0 0 1 .674 0 .887.887 0 0 1 .468.46c.047.106.07.22.07.34zm3.283 1.545c.242 0 .47.025.682.074.213.05.407.122.583.218h1.623v.506a.28.28 0 0 1-.066.198c-.044.047-.12.08-.226.099l-.506.093a1.748 1.748 0 0 1 .116.638c0 .279-.056.53-.168.756a1.695 1.695 0 0 1-.462.575c-.196.158-.429.28-.698.366-.27.086-.562.129-.878.129-.212 0-.42-.02-.621-.06-.176.106-.264.225-.264.357 0 .114.052.197.157.25.104.053.242.091.412.113.17.022.364.036.58.041.217.006.438.018.666.036.227.018.449.05.665.096.217.046.41.119.58.218.171.099.309.233.413.404.105.17.157.39.157.657 0 .25-.062.491-.184.726a1.95 1.95 0 0 1-.534.627c-.233.183-.518.33-.855.443a3.665 3.665 0 0 1-1.155.168c-.43 0-.801-.042-1.117-.124a2.606 2.606 0 0 1-.783-.33 1.431 1.431 0 0 1-.465-.476 1.115 1.115 0 0 1-.154-.561.96.96 0 0 1 .242-.665c.161-.18.385-.323.67-.43a.936.936 0 0 1-.335-.307.896.896 0 0 1-.126-.501.84.84 0 0 1 .044-.261c.03-.09.074-.179.135-.267.06-.088.136-.171.228-.25.091-.08.2-.15.324-.212a1.78 1.78 0 0 1-.673-.616 1.645 1.645 0 0 1-.245-.902c0-.279.056-.53.168-.756.111-.226.267-.418.467-.578.2-.16.436-.281.71-.365.273-.085.57-.127.893-.127zm1.49 5.995c0-.11-.032-.2-.098-.27a.65.65 0 0 0-.27-.162 1.993 1.993 0 0 0-.398-.085 7.354 7.354 0 0 0-.484-.041l-.528-.028a6.66 6.66 0 0 1-.526-.046 1.228 1.228 0 0 0-.371.3.616.616 0 0 0-.14.398c0 .099.025.192.074.278a.62.62 0 0 0 .237.223c.108.062.248.11.42.145.173.035.383.053.633.053.253 0 .471-.02.654-.058.184-.039.335-.092.454-.16a.686.686 0 0 0 .261-.242.591.591 0 0 0 .083-.305zm-1.49-3.212c.169 0 .316-.023.44-.069a.782.782 0 0 0 .498-.481c.042-.114.063-.238.063-.374 0-.279-.083-.5-.25-.663-.167-.163-.417-.244-.75-.244-.334 0-.585.081-.751.244-.167.163-.25.384-.25.663 0 .132.02.255.063.369a.808.808 0 0 0 .187.294.84.84 0 0 0 .313.192c.127.046.272.069.437.069zm3.74 2.959v-8.173h1.359v3.14c.22-.208.462-.377.726-.505.264-.129.574-.193.93-.193.307 0 .58.052.819.157.238.104.437.25.597.44.16.189.28.414.363.676.082.262.123.551.123.867v3.591h-1.358v-3.591c0-.345-.08-.612-.24-.8-.159-.19-.398-.284-.717-.284-.235 0-.455.053-.66.16-.206.106-.4.25-.583.434v4.081h-1.359zm8.114.088c-.488 0-.864-.138-1.128-.415-.264-.277-.396-.66-.396-1.147v-3.151h-.572a.275.275 0 0 1-.19-.072c-.053-.048-.08-.12-.08-.214v-.54l.908-.148.286-1.54a.272.272 0 0 1 .102-.17c.053-.04.12-.061.2-.061h.705v1.777h1.485v.968h-1.485v3.058c0 .176.044.313.132.412a.448.448 0 0 0 .352.149.64.64 0 0 0 .212-.03 1.165 1.165 0 0 0 .26-.127.188.188 0 0 1 .1-.03c.04 0 .073.01.099.03.026.02.053.05.082.09l.407.66c-.198.166-.425.29-.682.375a2.538 2.538 0 0 1-.797.126zM39.388 86.757v1.177h-3.525v2.354h2.975v1.183h-2.975v3.239h-1.49v-7.953h5.015zm2.53-.22v8.173H40.56v-8.173h1.358zm5.957 8.173h-.61a.658.658 0 0 1-.303-.058c-.074-.038-.129-.116-.165-.233l-.121-.402a4.66 4.66 0 0 1-.421.338c-.137.097-.28.179-.426.245a2.174 2.174 0 0 1-.468.149c-.165.033-.348.049-.55.049-.238 0-.458-.032-.66-.096a1.423 1.423 0 0 1-.52-.289 1.311 1.311 0 0 1-.338-.478 1.697 1.697 0 0 1-.12-.666c0-.213.055-.423.167-.63.112-.207.298-.394.558-.56.26-.168.607-.306 1.04-.416.432-.11.97-.172 1.611-.187v-.33c0-.378-.08-.657-.239-.839-.16-.181-.391-.272-.696-.272a1.684 1.684 0 0 0-.932.25c-.108.064-.208.122-.3.174a.609.609 0 0 1-.302.077.393.393 0 0 1-.237-.072.563.563 0 0 1-.16-.176l-.247-.434c.65-.594 1.432-.891 2.349-.891.33 0 .624.054.883.162.258.108.477.258.657.45.18.193.316.423.41.691.093.268.14.561.14.88v3.564zm-2.64-.847c.14 0 .267-.013.385-.038.117-.026.228-.065.333-.116.104-.051.205-.115.302-.19s.195-.164.294-.266V92.3a7.439 7.439 0 0 0-.992.102c-.266.05-.48.113-.641.19a.823.823 0 0 0-.344.269.597.597 0 0 0-.102.336c0 .238.07.408.212.511.141.103.325.154.553.154zm7.326-3.696a.362.362 0 0 1-.116.124.3.3 0 0 1-.154.036.485.485 0 0 1-.211-.055 14.456 14.456 0 0 0-.262-.124 2.393 2.393 0 0 0-.338-.124 1.62 1.62 0 0 0-.448-.055c-.268 0-.479.057-.633.17a.529.529 0 0 0-.23.446c0 .121.039.223.118.305.078.083.183.155.313.218.13.062.278.118.443.167.165.05.333.104.506.163.172.058.34.125.506.2.165.075.312.17.443.286.13.116.234.254.313.416.079.16.118.355.118.583 0 .27-.05.521-.148.75a1.65 1.65 0 0 1-.435.594c-.19.167-.426.297-.706.39a3.05 3.05 0 0 1-.966.141c-.194 0-.384-.017-.569-.052a3.36 3.36 0 0 1-.533-.146 2.952 2.952 0 0 1-.473-.22 2.296 2.296 0 0 1-.383-.275l.314-.517a.443.443 0 0 1 .143-.143.4.4 0 0 1 .209-.05.44.44 0 0 1 .239.072c.075.048.162.099.261.154.1.055.216.106.35.154.133.048.303.072.508.072.162 0 .3-.02.416-.058a.879.879 0 0 0 .286-.151.568.568 0 0 0 .165-.218.651.651 0 0 0 .052-.255c0-.132-.04-.24-.118-.325a1.035 1.035 0 0 0-.314-.22 3.028 3.028 0 0 0-.445-.168 14.72 14.72 0 0 1-.512-.162 4.732 4.732 0 0 1-.511-.206 1.743 1.743 0 0 1-.446-.3 1.357 1.357 0 0 1-.313-.445 1.555 1.555 0 0 1-.119-.638c0-.231.046-.451.138-.66.091-.21.226-.392.404-.548.178-.156.4-.28.666-.374.265-.093.572-.14.92-.14.39 0 .743.064 1.062.193.32.128.585.297.798.506l-.308.489zm1.457 4.543v-8.173h1.359v3.14c.22-.208.462-.377.726-.505.264-.129.574-.193.93-.193.307 0 .58.052.819.157.238.104.437.25.597.44.16.189.28.414.363.676.082.262.123.551.123.867v3.591h-1.358v-3.591c0-.345-.08-.612-.24-.8-.159-.19-.398-.284-.717-.284-.235 0-.455.053-.66.16-.206.106-.4.25-.583.434v4.081h-1.359zm12.716-6.506a.408.408 0 0 1-.14.17.353.353 0 0 1-.19.05.482.482 0 0 1-.247-.086c-.092-.057-.2-.12-.325-.19a2.65 2.65 0 0 0-.437-.19 1.838 1.838 0 0 0-.591-.084c-.206 0-.384.024-.536.074-.153.05-.28.118-.385.206a.824.824 0 0 0-.234.316 1.038 1.038 0 0 0-.077.405c0 .187.052.342.157.467.104.125.242.231.415.319.172.088.368.167.588.237.22.07.445.143.674.222.23.08.454.17.674.275.22.105.416.237.588.396.173.16.311.355.416.586.104.231.156.512.156.842 0 .359-.061.695-.184 1.009a2.328 2.328 0 0 1-.539.82 2.539 2.539 0 0 1-.866.55 3.19 3.19 0 0 1-1.172.2 3.937 3.937 0 0 1-1.455-.286 3.69 3.69 0 0 1-.632-.33 3.112 3.112 0 0 1-.525-.429l.429-.71a.547.547 0 0 1 .146-.129.356.356 0 0 1 .19-.052c.091 0 .19.038.296.113.107.075.232.158.377.25s.315.175.512.25c.196.075.431.113.706.113.422 0 .748-.1.98-.3.23-.2.346-.486.346-.86a.8.8 0 0 0-.157-.512 1.265 1.265 0 0 0-.415-.333 3.1 3.1 0 0 0-.589-.228c-.22-.062-.443-.13-.67-.203a5.786 5.786 0 0 1-.672-.264 2.174 2.174 0 0 1-.588-.402 1.827 1.827 0 0 1-.415-.619c-.105-.247-.157-.552-.157-.915 0-.29.058-.572.173-.847.116-.275.284-.52.506-.732.222-.213.494-.383.817-.511a2.973 2.973 0 0 1 1.105-.193c.47 0 .902.073 1.298.22a2.93 2.93 0 0 1 1.012.616l-.363.699zm5.984 6.506h-.61a.658.658 0 0 1-.303-.058c-.073-.038-.128-.116-.165-.233l-.12-.402a4.66 4.66 0 0 1-.421.338c-.138.097-.28.179-.427.245a2.174 2.174 0 0 1-.467.149c-.165.033-.349.049-.55.049-.239 0-.459-.032-.66-.096a1.423 1.423 0 0 1-.52-.289 1.311 1.311 0 0 1-.338-.478 1.697 1.697 0 0 1-.121-.666c0-.213.056-.423.168-.63.111-.207.297-.394.558-.56.26-.168.607-.306 1.04-.416.432-.11.97-.172 1.61-.187v-.33c0-.378-.079-.657-.238-.839-.16-.181-.392-.272-.696-.272a1.684 1.684 0 0 0-.932.25l-.3.174a.609.609 0 0 1-.303.077.393.393 0 0 1-.236-.072.563.563 0 0 1-.16-.176l-.247-.434c.649-.594 1.432-.891 2.348-.891.33 0 .625.054.883.162.259.108.478.258.657.45.18.193.317.423.41.691.094.268.14.561.14.88v3.564zm-2.64-.847c.14 0 .268-.013.385-.038.118-.026.229-.065.333-.116.105-.051.205-.115.303-.19.097-.075.195-.164.294-.266V92.3a7.439 7.439 0 0 0-.993.102c-.266.05-.48.113-.64.19a.823.823 0 0 0-.344.269.597.597 0 0 0-.102.336c0 .238.07.408.212.511.14.103.325.154.552.154zm5.423-7.326v8.173h-1.358v-8.173H75.5zm3.867 2.442c.355 0 .683.057.982.17a2.15 2.15 0 0 1 1.278 1.301 3.032 3.032 0 0 1 .168 1.342.41.41 0 0 1-.05.16.2.2 0 0 1-.096.082.41.41 0 0 1-.154.025H78.01c.04.58.196 1.005.468 1.276.271.271.63.407 1.078.407.22 0 .41-.026.569-.077a2.67 2.67 0 0 0 .418-.17c.12-.063.224-.12.314-.171a.526.526 0 0 1 .26-.077c.056 0 .103.011.144.033.04.022.075.053.104.094l.396.495c-.15.176-.319.323-.506.442-.187.12-.382.215-.585.286-.204.072-.411.122-.622.152a4.45 4.45 0 0 1-.613.044c-.393 0-.757-.066-1.095-.196a2.45 2.45 0 0 1-.88-.577 2.71 2.71 0 0 1-.588-.946c-.143-.376-.215-.811-.215-1.306 0-.385.063-.748.187-1.087.125-.339.304-.634.537-.885.232-.251.517-.45.852-.597.336-.147.714-.22 1.136-.22zm.027.974c-.396 0-.706.111-.93.335-.223.224-.366.54-.428.952h2.552c0-.176-.024-.342-.072-.498a1.148 1.148 0 0 0-.22-.41 1.041 1.041 0 0 0-.374-.278 1.274 1.274 0 0 0-.528-.101zm5.434-3.196v3.146c0 .334-.016.66-.05.982-.032.32-.076.66-.131 1.02h-.919c-.055-.36-.099-.7-.132-1.02a9.59 9.59 0 0 1-.05-.982v-3.146h1.282zm-1.49 7.205c0-.114.02-.222.063-.324.042-.103.1-.191.176-.264a.866.866 0 0 1 .597-.242.832.832 0 0 1 .588.242.832.832 0 0 1 .242.588.84.84 0 0 1-.242.588.846.846 0 0 1-.588.237.86.86 0 0 1-.597-.236.782.782 0 0 1-.176-.262.84.84 0 0 1-.063-.327z" fill="#7191A6"/><g transform="translate(26 125.583)"><mask id="f" fill="#fff"><use xlink:href="#e"/></mask><path stroke="#7191A6" stroke-width="1.5" mask="url(#f)" d="M62.486 2.574L53.58 11.48l-8.904-8.905-8.905 8.905-8.905-8.905-8.905 8.905-8.904-8.905-10.383 10.383v12.41L9.058 14.983l8.904 8.904 8.905-8.904 8.905 8.904 8.905-8.904 8.904 8.904 8.905-8.904 10.383 10.382V12.957zM62.486 27.397l-8.905 8.905-8.904-8.905-8.905 8.905-8.905-8.905-8.905 8.905-8.904-8.905L-1.325 37.78v12.41L9.058 39.806l8.904 8.904 8.905-8.904 8.905 8.904 8.905-8.904 8.904 8.904 8.905-8.904L72.869 50.19V37.78z"/></g><path d="M78.955 49.99v-7.953H81.7c.52 0 .965.05 1.334.149.368.099.67.24.907.423.237.184.41.406.52.666.11.26.165.554.165.88 0 .187-.028.366-.083.536-.055.17-.14.33-.255.479a1.916 1.916 0 0 1-.44.404 2.66 2.66 0 0 1-.636.308c1.093.246 1.64.836 1.64 1.77 0 .338-.065.65-.193.936a2.062 2.062 0 0 1-.561.74 2.68 2.68 0 0 1-.908.486c-.359.118-.77.176-1.232.176h-3.003zm1.48-3.487v2.332h1.501c.275 0 .505-.033.69-.099.186-.066.334-.154.446-.264a.967.967 0 0 0 .242-.385c.05-.146.074-.302.074-.467 0-.172-.027-.327-.082-.465a.872.872 0 0 0-.259-.352 1.209 1.209 0 0 0-.45-.223 2.496 2.496 0 0 0-.666-.077h-1.496zm0-1.023h1.182c.503 0 .884-.091 1.144-.275.26-.183.39-.474.39-.874 0-.414-.117-.71-.351-.886-.235-.176-.602-.264-1.1-.264h-1.265v2.3zm6.853-1.133v3.586c0 .345.08.612.24.8.159.19.398.284.717.284.234 0 .454-.052.66-.157.205-.104.4-.248.583-.432v-4.08h1.358v5.642h-.83c-.176 0-.292-.082-.347-.247l-.093-.451a3.933 3.933 0 0 1-.363.322 2.19 2.19 0 0 1-1.38.464c-.309 0-.58-.052-.817-.156a1.636 1.636 0 0 1-.597-.443 1.939 1.939 0 0 1-.366-.68 2.875 2.875 0 0 1-.124-.866v-3.586h1.359zm7.012 7.194a.525.525 0 0 1-.156.218c-.065.05-.163.074-.295.074h-1.012l1.056-2.26-2.282-5.226h1.188c.11 0 .194.026.253.077.058.052.102.11.132.176l1.204 2.926c.04.096.075.195.105.297.03.103.055.206.077.308.03-.106.061-.209.096-.308s.072-.2.113-.302l1.133-2.92a.4.4 0 0 1 .374-.254h1.089L94.3 51.541zm6.743-2.568h1.612v-4.637c0-.18.005-.368.016-.566l-1.144.957a.406.406 0 0 1-.145.082.511.511 0 0 1-.146.022.432.432 0 0 1-.336-.154l-.429-.588 2.426-2.063h1.116v6.947h1.43v1.017h-4.4v-1.017zm11.479-.072c.333 0 .624-.03.872-.09.247-.06.483-.144.706-.25v-1.447h-.995a.31.31 0 0 1-.226-.08.261.261 0 0 1-.082-.195v-.836h2.645v3.217a4.37 4.37 0 0 1-.63.383 4.021 4.021 0 0 1-.698.266 5.35 5.35 0 0 1-.795.157 7.474 7.474 0 0 1-.913.052c-.579 0-1.113-.1-1.6-.302a3.803 3.803 0 0 1-1.265-.842 3.832 3.832 0 0 1-.833-1.287c-.2-.498-.3-1.043-.3-1.633 0-.598.097-1.146.291-1.645a3.71 3.71 0 0 1 .828-1.287c.358-.359.791-.638 1.3-.836a4.706 4.706 0 0 1 1.717-.297c.649 0 1.21.097 1.686.29.474.192.877.442 1.207.75l-.43.67c-.084.137-.195.204-.335.204a.5.5 0 0 1-.27-.088c-.117-.07-.237-.139-.36-.209a2.437 2.437 0 0 0-.406-.181 3.318 3.318 0 0 0-.5-.127 3.685 3.685 0 0 0-.642-.05c-.392 0-.747.067-1.064.199-.317.132-.588.32-.811.566-.224.246-.396.541-.517.886a3.47 3.47 0 0 0-.182 1.155c0 .458.064.866.193 1.224.128.357.308.659.539.904.23.246.506.434.825.564.319.13.667.195 1.045.195zm6.556-4.642c.355 0 .683.057.982.17a2.15 2.15 0 0 1 1.278 1.302 3.032 3.032 0 0 1 .168 1.342.41.41 0 0 1-.05.16.2.2 0 0 1-.096.082.41.41 0 0 1-.154.024h-3.487c.04.58.196 1.005.468 1.276.271.272.63.407 1.078.407.22 0 .41-.025.57-.077a2.67 2.67 0 0 0 .417-.17c.12-.062.224-.12.314-.17a.526.526 0 0 1 .26-.078c.056 0 .103.011.144.033.04.022.075.054.104.094l.396.495c-.15.176-.319.324-.506.443s-.382.214-.585.286c-.204.071-.411.122-.622.15a4.45 4.45 0 0 1-.613.045c-.393 0-.757-.065-1.095-.195a2.45 2.45 0 0 1-.88-.578 2.71 2.71 0 0 1-.588-.946c-.143-.376-.215-.811-.215-1.306 0-.385.063-.747.187-1.086.125-.34.304-.635.537-.886.232-.251.517-.45.852-.597.336-.146.714-.22 1.136-.22zm.027.974c-.396 0-.706.112-.93.335-.223.224-.366.541-.428.952h2.552c0-.176-.024-.342-.072-.498a1.148 1.148 0 0 0-.22-.41 1.041 1.041 0 0 0-.374-.277 1.274 1.274 0 0 0-.528-.102zm5.374 4.845c-.488 0-.864-.138-1.128-.415-.264-.277-.396-.659-.396-1.147v-3.151h-.572a.275.275 0 0 1-.19-.072c-.053-.047-.08-.119-.08-.214v-.54l.908-.148.286-1.54a.272.272 0 0 1 .102-.17c.053-.04.12-.06.2-.06h.705v1.776h1.485v.968h-1.485v3.058c0 .176.044.313.132.412a.448.448 0 0 0 .352.149.64.64 0 0 0 .212-.03 1.165 1.165 0 0 0 .26-.127.188.188 0 0 1 .1-.03c.04 0 .073.01.099.03.025.02.053.05.082.09l.407.66c-.198.166-.425.29-.682.375a2.538 2.538 0 0 1-.797.126zm5.28-1.105h1.611v-4.637c0-.18.006-.368.017-.566l-1.144.957a.406.406 0 0 1-.146.082.511.511 0 0 1-.146.022.432.432 0 0 1-.335-.154l-.43-.588 2.426-2.063h1.117v6.947h1.43v1.017h-4.4v-1.017z" fill="#7191A6"/><path d="M144 71H98M141 77H98M124 83H98M118 89H98M111.5 95H98M110.59 101H98" stroke="#7191A6" stroke-width="1.5" stroke-linejoin="round"/><path d="M147.762 77.88l1.521 1.538a5.47 5.47 0 0 0 5.727 1.307l2.037-.726a5.471 5.471 0 0 1 7.011 3.377l.703 2.045a5.472 5.472 0 0 0 4.593 3.663l2.15.23a5.472 5.472 0 0 1 4.852 6.084l-.254 2.147a5.471 5.471 0 0 0 2.55 5.293l1.836 1.14a5.472 5.472 0 0 1 1.732 7.587l-1.16 1.825a5.472 5.472 0 0 0 0 5.874l1.16 1.825a5.472 5.472 0 0 1-1.732 7.587l-1.837 1.14a5.471 5.471 0 0 0-2.549 5.293l.254 2.147a5.471 5.471 0 0 1-4.852 6.084l-2.15.23a5.472 5.472 0 0 0-4.593 3.663l-.703 2.045a5.471 5.471 0 0 1-7.01 3.377l-2.038-.726a5.47 5.47 0 0 0-5.727 1.307l-1.52 1.538a5.472 5.472 0 0 1-7.783 0l-1.52-1.538a5.472 5.472 0 0 0-5.728-1.307l-2.037.726a5.472 5.472 0 0 1-7.01-3.377l-.704-2.045a5.47 5.47 0 0 0-4.592-3.663l-2.15-.23a5.471 5.471 0 0 1-4.853-6.084l.255-2.147a5.473 5.473 0 0 0-2.549-5.293l-1.838-1.14a5.472 5.472 0 0 1-1.732-7.587l1.161-1.825a5.468 5.468 0 0 0 0-5.874l-1.16-1.825a5.472 5.472 0 0 1 1.731-7.587l1.838-1.14a5.473 5.473 0 0 0 2.55-5.293l-.256-2.147a5.472 5.472 0 0 1 4.852-6.084l2.151-.23a5.47 5.47 0 0 0 4.592-3.663l.703-2.045A5.472 5.472 0 0 1 130.695 80l2.037.726a5.472 5.472 0 0 0 5.728-1.307l1.52-1.538a5.472 5.472 0 0 1 7.782 0z" stroke="#7191A6" stroke-linecap="round" stroke-linejoin="round" stroke-width="1.5"/><path d="M139.142 135.117c0 .367-.063.708-.19 1.024a2.47 2.47 0 0 1-.535.825c-.23.233-.507.417-.831.549a2.827 2.827 0 0 1-1.08.199 2.84 2.84 0 0 1-1.08-.199 2.469 2.469 0 0 1-.835-.55 2.457 2.457 0 0 1-.537-.824 2.73 2.73 0 0 1-.19-1.024c0-.368.064-.71.19-1.025.127-.316.306-.59.537-.823.231-.232.51-.415.835-.547a2.84 2.84 0 0 1 1.08-.199c.396 0 .755.067 1.08.2.324.134.601.317.831.55.23.232.409.506.535.822.127.316.19.657.19 1.022zm-1.206 0c0-.251-.033-.477-.098-.678a1.436 1.436 0 0 0-.28-.511 1.21 1.21 0 0 0-.448-.32 1.542 1.542 0 0 0-.603-.112c-.228 0-.43.037-.609.111a1.207 1.207 0 0 0-.45.32c-.121.14-.215.31-.28.512a2.196 2.196 0 0 0-.098.678c0 .253.033.48.098.681.065.201.159.371.28.51.123.14.273.247.45.32.178.073.381.11.609.11.225 0 .426-.037.603-.11.176-.073.326-.18.448-.32.122-.139.215-.309.28-.51.065-.2.098-.428.098-.681zm2.891-2.538a1 1 0 0 1 .13.007.314.314 0 0 1 .174.08.916.916 0 0 1 .087.094l2.412 3.05a6.427 6.427 0 0 1-.028-.544v-2.687h1.04v5.079h-.614a.565.565 0 0 1-.23-.042.492.492 0 0 1-.182-.153l-2.395-3.026.018.26c.004.084.007.164.007.238v2.723h-1.04v-5.08h.621zm6.33 4.138h1.882v.94h-3.061v-5.078h1.178v4.138zm5.47-.99v1.93h-1.178v-1.93l-1.84-3.148h1.038c.102 0 .184.024.244.071.06.048.11.109.147.183l.718 1.478.16.328c.049.1.092.199.129.296.035-.1.077-.2.126-.3l.156-.324.712-1.478a.508.508 0 0 1 .141-.173.403.403 0 0 1 .242-.081h1.046l-1.84 3.148zM119.686 98.856h1.495c.177 0 .312.047.407.142.095.094.16.21.199.35l5.563 22.347c.063.265.126.549.19.852.062.302.113.618.15.946.114-.328.23-.644.35-.946.12-.303.25-.587.389-.852l11.031-22.347a.868.868 0 0 1 .294-.35.777.777 0 0 1 .463-.142h1.476l-13.435 26.775h-1.684l-6.888-26.775zm25.148 26.775h-1.892l3.274-26.775h1.892l-3.274 26.775zm11.58-10.805l-1.324 10.805h-1.873l3.274-26.775h6.433c2.624 0 4.592.59 5.904 1.769 1.312 1.18 1.968 2.835 1.968 4.967 0 1.363-.233 2.608-.7 3.737a8.373 8.373 0 0 1-1.987 2.914c-.858.814-1.892 1.448-3.103 1.902-1.211.454-2.561.681-4.05.681h-4.541zm1.78-14.475l-1.59 12.961h4.542c1.185 0 2.254-.189 3.207-.567a7.196 7.196 0 0 0 2.44-1.57 6.897 6.897 0 0 0 1.562-2.385c.366-.92.549-1.924.549-3.009 0-1.715-.514-3.05-1.542-4.002-1.029-.952-2.57-1.428-4.627-1.428h-4.541z" fill="#7191A6"/></g></svg>