<svg width="168" height="96" viewBox="0 0 168 96" xmlns="http://www.w3.org/2000/svg" xmlns:xlink="http://www.w3.org/1999/xlink"><title>Scanner by Vend Copy</title><defs><path id="a" d="M.407 69.053h42.44V.412H.406z"/></defs><g fill="none" fill-rule="evenodd"><path d="M67.121 69.523l-.64-.45.64-.448a4.255 4.255 0 0 0 0-6.98l-.64-.45.64-.448a4.255 4.255 0 0 0 0-6.98l-.64-.45.64-.448a4.256 4.256 0 0 0 1.822-3.49c0-2.352-1.919-4.265-4.281-4.265-2.36 0-4.281 1.911-4.281 4.265 0 1.404.688 2.695 1.822 3.49l.64.45-.64.448a4.255 4.255 0 0 0 0 6.98l.64.45-.64.448a4.255 4.255 0 0 0 0 6.98l.64.45-.64.448a4.255 4.255 0 0 0-1.822 3.49c0 2.352 1.919 4.265 4.28 4.265s4.282-1.911 4.282-4.265a4.258 4.258 0 0 0-1.822-3.49" fill="#FFF"/><path d="M67.121 69.523l-.64-.45.64-.448a4.255 4.255 0 0 0 0-6.98l-.64-.45.64-.448a4.255 4.255 0 0 0 0-6.98l-.64-.45.64-.448a4.256 4.256 0 0 0 1.822-3.49c0-2.352-1.919-4.265-4.281-4.265-2.36 0-4.281 1.911-4.281 4.265 0 1.404.688 2.695 1.822 3.49l.64.45-.64.448a4.255 4.255 0 0 0 0 6.98l.64.45-.64.448a4.255 4.255 0 0 0 0 6.98l.64.45-.64.448a4.255 4.255 0 0 0-1.822 3.49c0 2.352 1.919 4.265 4.28 4.265s4.282-1.911 4.282-4.265a4.258 4.258 0 0 0-1.822-3.49z" stroke="#000" stroke-width=".825"/><path d="M84.154 86.939L97.14 95.53h24.286l-.288-17.877V37.562a4.272 4.272 0 0 0-4.282-4.265c-2.36 0-4.28 1.912-4.28 4.265v36.11L84.153 86.94z" fill="#FFF"/><path d="M84.154 86.939L97.14 95.53h24.286l-.288-17.877V37.562a4.272 4.272 0 0 0-4.282-4.265c-2.36 0-4.28 1.912-4.28 4.265v36.11L84.153 86.94z" stroke="#000" stroke-width=".825"/><path d="M70.302 1.412h38.03c2.74 0 4.96 2.212 4.96 4.942V82.43c0 2.729-2.22 4.942-4.96 4.942h-38.03c-2.74 0-4.96-2.213-4.96-4.942V6.354c0-2.73 2.22-4.942 4.96-4.942" fill="#D7E5F0"/><path d="M70.302 1.412h38.03c2.74 0 4.96 2.212 4.96 4.942V82.43c0 2.729-2.22 4.942-4.96 4.942h-38.03c-2.74 0-4.96-2.213-4.96-4.942V6.354c0-2.73 2.22-4.942 4.96-4.942z" stroke="#211F1F" stroke-width=".825"/><g transform="translate(67.69 9.237)"><mask id="b" fill="#fff"><use xlink:href="#a"/></mask><use fill="#FFF" xlink:href="#a"/><g mask="url(#b)" stroke="#D9E8F6" stroke-width=".825"><path d="M4.167-1.356l-79.934 79.64M6.48-1.356l-79.935 79.64M8.792-1.356l-79.934 79.64M11.105-1.356l-79.934 79.64M13.417-1.356l-79.934 79.64M15.73-1.356l-79.934 79.64M18.043-1.356l-79.934 79.64M20.355-1.356l-79.934 79.64M22.668-1.356l-79.934 79.64M24.98-1.356l-79.933 79.64M27.293-1.356l-79.934 79.64M29.606-1.356l-79.934 79.64M31.919-1.356l-79.934 79.64M34.231-1.356l-79.934 79.64M36.544-1.356l-79.934 79.64M38.856-1.356l-79.934 79.64M41.17-1.356l-79.935 79.64M43.482-1.356l-79.934 79.64M45.794-1.356l-79.934 79.64M48.107-1.356l-79.934 79.64M50.42-1.356l-79.934 79.64M52.732-1.356l-79.934 79.64M55.045-1.356l-79.934 79.64M57.358-1.356l-79.934 79.64M59.67-1.356l-79.934 79.64M61.983-1.356l-79.934 79.64M64.296-1.356l-79.934 79.64M66.608-1.356l-79.934 79.64M68.921-1.356l-79.934 79.64M71.234-1.356L-8.7 78.284M73.546-1.356l-79.934 79.64M75.859-1.356l-79.934 79.64M78.172-1.356l-79.934 79.64M80.484-1.356L.55 78.284M82.797-1.356L2.863 78.284M85.11-1.356L5.176 78.284M87.422-1.356L7.488 78.284M89.735-1.356L9.8 78.284M92.048-1.356l-79.934 79.64M94.36-1.356l-79.934 79.64M96.673-1.356l-79.934 79.64M98.986-1.356l-79.934 79.64M101.298-1.356l-79.934 79.64M103.61-1.356l-79.933 79.64M105.924-1.356l-79.935 79.64M108.236-1.356l-79.934 79.64M110.549-1.356l-79.934 79.64M112.861-1.356l-79.934 79.64M115.174-1.356L35.24 78.284M117.487-1.356l-79.934 79.64M119.8-1.356l-79.935 79.64M122.112-1.356l-79.934 79.64M124.425-1.356L44.49 78.284"/></g><g mask="url(#b)"><path stroke="#000" stroke-width=".825" fill="#41AF4B" d="M10.754 72.67L52.827 30.75 22.638.674l-42.072 41.918 7.516 22.538z"/><path d="M18.148 52.026L1.236 35.175" stroke="#211F1F" stroke-width="2.2"/><path d="M14.396 55.765L-2.517 38.914" stroke="#211F1F" stroke-width="2.75"/><path d="M21.539 48.648L4.626 31.798" stroke="#211F1F" stroke-width="3.3"/><path d="M24.848 45.35L7.935 28.5M28.63 41.583l-16.913-16.85" stroke="#211F1F" stroke-width="2.2"/><path d="M32.884 37.344l-16.913-16.85" stroke="#211F1F" stroke-width="3.3"/><path d="M36.666 33.576l-16.913-16.85" stroke="#211F1F" stroke-width="2.2"/><path d="M39.34 30.912l-16.913-16.85" stroke="#211F1F" stroke-width="2.75"/></g></g><path stroke="#000" stroke-width=".825" stroke-linecap="round" stroke-linejoin="round" d="M68.097 78.29h42.439V9.65H68.097z"/><path d="M86.836 5.53h5.726M89.317 80.762a2.2 2.2 0 0 1 2.204 2.196 2.2 2.2 0 0 1-2.204 2.197 2.2 2.2 0 0 1-2.205-2.197 2.2 2.2 0 0 1 2.205-2.196z" stroke="#211F1F" stroke-width=".825" stroke-linejoin="round"/><g><path d="M14.098 26.87c-1.585.515-2.145.795-3.187 1.595-1.042.8-3.011 2.414-3.762 3.733l-6.14 10.79 9.922 5.493 3.307-5.866s1.445-16.262-.14-15.746" fill="#B0BFC9"/><path d="M14.098 26.87c-1.585.515-2.145.795-3.187 1.595-1.042.8-3.011 2.414-3.762 3.733l-6.14 10.79 9.922 5.493 3.307-5.866s1.445-16.262-.14-15.746z" stroke="#231F20" stroke-width=".825"/><path d="M42.486 26.844c1.081.271 2.032.817 3.187 1.62 1.155.805 3.01 2.415 3.761 3.734l6.14 10.79-9.921 5.493-3.307-5.866s-.942-16.041.14-15.77" fill="#B0BFC9"/><path d="M42.486 26.844c1.081.271 2.032.817 3.187 1.62 1.155.805 3.01 2.415 3.761 3.734l6.14 10.79-9.921 5.493-3.307-5.866s-.942-16.041.14-15.77z" stroke="#231F20" stroke-width=".825"/><path d="M20.643 25.025a7.992 7.992 0 0 0 7.599 5.491 7.992 7.992 0 0 0 7.6-5.491h1.62l6.105 2.212-.168 43.366H13.085V27.237l6.106-2.212h1.452z" fill="#D7E5F0"/><path d="M20.643 25.025a7.992 7.992 0 0 0 7.599 5.491 7.992 7.992 0 0 0 7.6-5.491h1.62l6.105 2.212-.168 43.366H13.085V27.237l6.106-2.212h1.452z" stroke="#211F1F" stroke-width=".825"/><path d="M19.19 25.025c1.255 3.975 4.871 6.847 9.136 6.847 4.265 0 7.881-2.872 9.136-6.847" stroke="#211F1F" stroke-width=".825"/><path fill="#D7E5F0" d="M37.435 48.637h6.062v-8.786h-6.062z"/><path stroke="#211F1F" stroke-width=".825" d="M37.435 48.637h6.062v-8.786h-6.062z"/><path d="M37.435 41.773h5.786" fill="#D7E5F0"/><path d="M37.435 41.773h5.786" stroke="#211F1F" stroke-width=".825"/><path d="M20.05 25.025H36.7" fill="#D7E5F0"/><path d="M20.05 25.025H36.7" stroke="#211F1F" stroke-width=".825"/><path fill="#FFF" d="M26.137 27.496h4.409v-2.197h-4.41z"/><path stroke="#000" stroke-width=".825" d="M26.137 27.496h4.409v-2.197h-4.41z"/><path d="M28.065 31.891V39.6" fill="#D7E5F0"/><path d="M28.065 31.891V39.6" stroke="#211F1F" stroke-width=".825"/><path d="M30.27 33.815a.55.55 0 1 1 .002 1.1.55.55 0 0 1-.001-1.1" fill="#D7E5F0"/><path d="M30.27 33.815a.55.55 0 1 1 .002 1.1.55.55 0 0 1-.001-1.1z" stroke="#211F1F" stroke-width=".825"/><path d="M30.27 37.11a.55.55 0 1 1 .002 1.1.55.55 0 0 1-.001-1.1" fill="#D7E5F0"/><path d="M30.27 37.11a.55.55 0 1 1 .002 1.1.55.55 0 0 1-.001-1.1z" stroke="#211F1F" stroke-width=".825"/><path stroke="#000" stroke-width=".825" fill="#41AF4B" d="M38.1 22.616L50.33 10.43l-8.574-8.542-12.23 12.185 2.135 6.4z"/><path d="M34.35 17.808a1.095 1.095 0 0 1 0-1.553 1.105 1.105 0 0 1 1.56 0c.43.429.43 1.124 0 1.553a1.105 1.105 0 0 1-1.56 0z" stroke="#211F1F" stroke-width=".825" fill="#FFF"/><path d="M40.586 16.643l-5.081-5.063" stroke="#211F1F" stroke-width=".55"/><path d="M41.56 15.672l-5.08-5.063" stroke="#211F1F" stroke-width="1.1"/><path d="M42.925 14.313L37.843 9.25M44.094 13.148l-5.082-5.063" stroke="#211F1F" stroke-width=".55"/><path d="M45.068 12.178l-5.081-5.063" stroke="#211F1F" stroke-width="1.1"/><path d="M46.432 10.819l-5.081-5.063" stroke="#211F1F" stroke-width=".55"/><path d="M27.871 25.324c1.048-3.896 4.072-4.82 4.072-4.82" stroke="#211F1F" stroke-width=".825"/></g><g><path d="M139.202 32.713V27.22h-5.515a2.752 2.752 0 0 0-2.752 2.746 2.751 2.751 0 0 0 2.752 2.746h5.515z" stroke="#211F1F" stroke-width=".825" stroke-linejoin="round"/><path d="M151.879 28.32h-14.881v7.222l-.414.106a6.044 6.044 0 0 0-4.547 5.849v26.36h24.802v-26.36c0-2.77-1.89-5.168-4.546-5.849l-.414-.106V28.32z" fill="#B0BFC9"/><path d="M151.879 28.32h-14.881v7.222l-.414.106a6.044 6.044 0 0 0-4.547 5.849v26.36h24.802v-26.36c0-2.77-1.89-5.168-4.546-5.849l-.414-.106V28.32z" stroke="#231F20" stroke-width=".825"/><path d="M135.344 29.418h18.188v-1.922c0-1.06-.866-1.922-1.931-1.922h-14.326c-1.07 0-1.93.859-1.93 1.922v1.922z" fill="#FFF"/><path d="M135.344 29.418h18.188v-1.922c0-1.06-.866-1.922-1.931-1.922h-14.326c-1.07 0-1.93.859-1.93 1.922v1.922z" stroke="#000" stroke-width=".825"/><path fill="#D7E5F0" d="M141.407 61.267h15.432V46.441h-15.432z"/><path stroke="#211F1F" stroke-width=".825" d="M141.407 61.267h15.432V46.441h-15.432z"/><path d="M132.037 67.857v1.647c0 .909.743 1.648 1.657 1.648h21.488a1.65 1.65 0 0 0 1.657-1.648v-1.647h-24.802z" fill="#D7E5F0"/><path d="M132.037 67.857v1.647c0 .909.743 1.648 1.657 1.648h21.488a1.65 1.65 0 0 0 1.657-1.648v-1.647h-24.802z" stroke="#211F1F" stroke-width=".825"/><path stroke="#000" stroke-width=".825" fill="#41AF4B" d="M155.502 22.616l12.23-12.186-8.574-8.542-12.23 12.185 2.136 6.4z"/><path d="M151.753 17.808a1.095 1.095 0 0 1 0-1.553 1.105 1.105 0 0 1 1.559 0c.43.429.43 1.124 0 1.553a1.105 1.105 0 0 1-1.559 0" fill="#FFF"/><path d="M151.753 17.808a1.095 1.095 0 0 1 0-1.553 1.105 1.105 0 0 1 1.559 0c.43.429.43 1.124 0 1.553a1.105 1.105 0 0 1-1.559 0z" stroke="#000" stroke-width=".825"/><path d="M157.989 16.643l-5.082-5.063" stroke="#211F1F" stroke-width=".55"/><path d="M158.963 15.672l-5.082-5.063" stroke="#211F1F" stroke-width="1.1"/><path d="M160.327 14.313l-5.082-5.063M161.496 13.148l-5.082-5.063" stroke="#211F1F" stroke-width=".55"/><path d="M162.47 12.178l-5.081-5.063" stroke="#211F1F" stroke-width="1.1"/><path d="M163.834 10.819l-5.081-5.063" stroke="#211F1F" stroke-width=".55"/><path d="M145.273 25.324c1.048-3.896 4.072-4.82 4.072-4.82" stroke="#211F1F" stroke-width=".825" stroke-linejoin="round"/></g></g></svg>