<?xml version="1.0" encoding="utf-8"?>
<!-- Generator: Adobe Illustrator 17.0.0, SVG Export Plug-In . SVG Version: 6.00 Build 0)  -->
<!DOCTYPE svg PUBLIC "-//W3C//DTD SVG 1.1//EN" "http://www.w3.org/Graphics/SVG/1.1/DTD/svg11.dtd">
<svg version="1.1" id="Capa_1" xmlns="http://www.w3.org/2000/svg" xmlns:xlink="http://www.w3.org/1999/xlink" x="0px" y="0px"
	 width="449.985px" height="899.999px" viewBox="575.009 0 449.985 899.999" enable-background="new 575.009 0 449.985 899.999"
	 xml:space="preserve">
<g>
	<g>
		<path fill="#5D78FF" d="M1024.991,93.748V18.75c0-7.653-4.651-14.556-11.756-17.395c-2.269-0.916-4.649-1.355-6.993-1.355
			c-5.017,0-9.924,2.014-13.549,5.787L580.2,437.029c-6.92,7.251-6.92,18.676,0,25.927l412.494,431.243
			c5.31,5.53,13.44,7.325,20.545,4.431c7.105-2.839,11.756-9.742,11.756-17.395v-74.999c0-4.797-1.832-9.411-5.127-12.89
			L694.565,449.993l325.301-343.353C1023.161,103.161,1024.991,98.547,1024.991,93.748z"/>
	</g>
</g>
</svg>
