<svg width="137" height="60" viewBox="0 0 137 60" xmlns="http://www.w3.org/2000/svg" xmlns:xlink="http://www.w3.org/1999/xlink"><title>Enterprise illustration</title><defs><path id="a" d="M.223.212h34.449v39.353H.223z"/><path id="c" d="M.25.47h76.607v54.263H.251z"/><path id="e" d="M0 59.19h136.814V.47H0z"/></defs><g fill="none" fill-rule="evenodd"><path fill="#A9BCC7" d="M105.205 20.62l-2.231 38.137h33.232l-2.232-38.137z"/><g transform="translate(0 .34)"><g transform="translate(102.142 19.46)"><mask id="b" fill="#fff"><use xlink:href="#a"/></mask><path d="M1.476 38.349h31.943l-2.16-36.921H3.636l-2.16 36.92zm32.587 1.216H.832a.61.61 0 0 1-.608-.644L2.455.784a.608.608 0 0 1 .607-.572h28.77c.322 0 .588.25.607.572l2.232 38.137a.61.61 0 0 1-.608.644z" fill="#1C1919" mask="url(#b)"/></g><path d="M128.457 23.348a.608.608 0 0 1-.608-.608c0-4.798-3.64-8.7-8.112-8.7-4.473 0-8.112 3.902-8.112 8.7a.608.608 0 0 1-1.216 0c0-5.468 4.184-9.916 9.328-9.916 5.143 0 9.328 4.448 9.328 9.916a.608.608 0 0 1-.608.608" fill="#1C1919"/><path d="M128.457 23.644a.727.727 0 1 0 .002 1.454.727.727 0 0 0-.002-1.454m0 2.669a1.945 1.945 0 0 1-1.942-1.943c0-1.07.871-1.942 1.942-1.942 1.07 0 1.942.871 1.942 1.942a1.945 1.945 0 0 1-1.942 1.943M111.018 23.644a.727.727 0 1 0 .001 1.454.727.727 0 0 0-.001-1.454m0 2.669a1.945 1.945 0 0 1-1.943-1.943c0-1.07.872-1.942 1.943-1.942 1.07 0 1.942.871 1.942 1.942a1.945 1.945 0 0 1-1.942 1.943" fill="#1C1919"/><path d="M106.243 54.125h-75.39V4.45a3.37 3.37 0 0 1 3.37-3.372h68.65a3.37 3.37 0 0 1 3.37 3.372v49.675z" fill="#D1E5F0"/><g transform="translate(29.994)"><mask id="d" fill="#fff"><use xlink:href="#c"/></mask><path d="M1.467 53.517H75.64V4.45a2.766 2.766 0 0 0-2.763-2.764H4.23A2.766 2.766 0 0 0 1.467 4.45v49.067zm75.39 1.216H.251V4.45A3.984 3.984 0 0 1 4.229.47h68.65a3.984 3.984 0 0 1 3.978 3.98v50.283z" fill="#1C1919" mask="url(#d)"/></g><mask id="f" fill="#fff"><use xlink:href="#e"/></mask><path fill="#FFF" mask="url(#f)" d="M34.847 50.03h67.015V5.155H34.847z"/><path d="M35.455 49.421h65.799V5.764H35.455v43.657zm66.407 1.217H34.847a.608.608 0 0 1-.608-.609V5.156c0-.336.273-.608.608-.608h67.015c.335 0 .608.272.608.608v44.873a.608.608 0 0 1-.608.609z" fill="#1C1919" mask="url(#f)"/><path d="M113.472 58.509H23.01a4.987 4.987 0 0 1-4.988-4.988v-1.18h100.477v1.14a5.027 5.027 0 0 1-5.027 5.028" fill="#D1E5F0" mask="url(#f)"/><path d="M18.63 52.949v.572a4.385 4.385 0 0 0 4.38 4.38h90.462a4.424 4.424 0 0 0 4.419-4.42v-.532H18.63zm94.842 6.168H23.01a5.602 5.602 0 0 1-5.596-5.596v-1.788h101.693v1.748a5.642 5.642 0 0 1-5.635 5.636z" fill="#1C1919" mask="url(#f)"/><path d="M72.678 55.225h-7.797a2.838 2.838 0 0 1-2.837-2.837h13.472a2.838 2.838 0 0 1-2.838 2.837" fill="#FFF" mask="url(#f)"/><path d="M62.736 52.996a2.233 2.233 0 0 0 2.145 1.621h7.797c1.02 0 1.88-.686 2.145-1.621H62.736zm9.942 2.837h-7.797a3.45 3.45 0 0 1-3.445-3.445c0-.336.272-.609.608-.609h13.471c.336 0 .608.273.608.609a3.45 3.45 0 0 1-3.445 3.445z" fill="#1C1919" mask="url(#f)"/><path d="M52.043 23.529a4.41 4.41 0 0 1-4.405-4.406 4.41 4.41 0 0 1 4.405-4.405c1.192 0 2.273.477 3.067 1.25l4.428-4.558a10.721 10.721 0 0 0-7.495-3.05c-5.934 0-10.762 4.828-10.762 10.763 0 5.936 4.828 10.765 10.762 10.765 1.046 0 2.056-.153 3.012-.432l-1.78-6.105a4.387 4.387 0 0 1-1.232.178" fill="#D1E5F0" mask="url(#f)"/><path d="M52.043 8.967c-5.599 0-10.154 4.556-10.154 10.156 0 5.6 4.555 10.157 10.154 10.157.758 0 1.513-.085 2.253-.255l-1.444-4.956c-.269.046-.539.068-.809.068a5.018 5.018 0 0 1-5.013-5.014 5.02 5.02 0 0 1 5.013-5.014c1.104 0 2.16.36 3.03 1.024l3.593-3.698a10.08 10.08 0 0 0-6.623-2.468m0 21.53c-6.27 0-11.37-5.103-11.37-11.374 0-6.27 5.1-11.372 11.37-11.372 2.97 0 5.783 1.145 7.92 3.223l.436.423-5.277 5.43-.436-.424a3.772 3.772 0 0 0-2.643-1.077 3.802 3.802 0 0 0-3.797 3.797 3.801 3.801 0 0 0 3.797 3.797c.354 0 .712-.05 1.062-.153l.584-.17 2.12 7.272-.583.17a11.339 11.339 0 0 1-3.183.458" fill="#1C1919" mask="url(#f)"/><path d="M59.538 11.41l-4.428 4.557a4.392 4.392 0 0 1 .53 5.692l5.194 3.662a10.733 10.733 0 0 0-1.295-13.912" fill="#A9BCC7" mask="url(#f)"/><path d="M56.457 21.492l4.217 2.972a10.071 10.071 0 0 0 1.524-5.34c0-2.558-.94-4.965-2.66-6.842l-3.593 3.699a4.962 4.962 0 0 1 1.11 3.143c0 .832-.204 1.64-.598 2.368m4.376 4.438a.601.601 0 0 1-.35-.112l-5.194-3.662a.61.61 0 0 1-.147-.848c.457-.645.698-1.4.698-2.184 0-1.03-.41-1.997-1.154-2.72a.608.608 0 0 1-.012-.86l4.429-4.558a.606.606 0 0 1 .86-.013 11.28 11.28 0 0 1 3.45 8.15c0 2.357-.72 4.621-2.083 6.55a.605.605 0 0 1-.497.257" fill="#1C1919" mask="url(#f)"/><path d="M53.275 23.35l1.78 6.106c2.363-.69 4.39-2.17 5.779-4.135l-5.195-3.662a4.42 4.42 0 0 1-2.364 1.691" fill="#FFF" mask="url(#f)"/><path d="M54.019 23.728l1.444 4.955a10.224 10.224 0 0 0 4.508-3.226l-4.216-2.972a5.06 5.06 0 0 1-1.736 1.243m1.036 6.335a.606.606 0 0 1-.584-.437l-1.78-6.105a.608.608 0 0 1 .414-.754 3.823 3.823 0 0 0 2.038-1.459.606.606 0 0 1 .846-.146l5.195 3.663a.606.606 0 0 1 .147.848 11.437 11.437 0 0 1-6.105 4.366.59.59 0 0 1-.171.024M41.49 37.627h24.175v-1.216H41.49zM41.49 41.322h24.175v-1.216H41.49zM41.49 45.017h12.088v-1.216H41.489zM71.072 9.522h24.175V8.306H71.072zM71.072 13.216h24.175V12H71.072zM71.072 16.91H83.16v-1.216H71.072z" fill="#1C1919" mask="url(#f)"/><path fill="#A9BCC7" mask="url(#f)" d="M71.982 46.189h4.295v-19.52h-4.295z"/><path d="M72.59 45.58h3.079V27.277h-3.08v18.305zm3.687 1.217h-4.295a.608.608 0 0 1-.608-.608v-19.52c0-.336.272-.609.608-.609h4.295c.335 0 .608.273.608.608v19.52a.608.608 0 0 1-.608.609z" fill="#1C1919" mask="url(#f)"/><path fill="#D1E5F0" mask="url(#f)" d="M78.928 46.189h4.296V23.08h-4.296z"/><path d="M79.536 45.58h3.08V23.69h-3.08V45.58zm-1.216 1.217h5.512V22.472H78.32v24.325z" fill="#1C1919" mask="url(#f)"/><path fill="#A9BCC7" mask="url(#f)" d="M85.875 46.189h4.295V33.013h-4.295z"/><path d="M86.483 45.58h3.079V33.622h-3.08v11.96zm3.687 1.217h-4.295a.608.608 0 0 1-.608-.608V33.013c0-.336.272-.608.608-.608h4.295c.336 0 .607.272.607.608v13.176a.608.608 0 0 1-.607.608z" fill="#1C1919" mask="url(#f)"/><path fill="#D1E5F0" mask="url(#f)" d="M92.821 46.189h4.295v-6.212h-4.295z"/><path d="M93.43 45.58h3.078v-4.995h-3.079v4.996zm-1.217 1.217h5.511v-7.428h-5.51v7.428z" fill="#1C1919" mask="url(#f)"/><path fill="#FFF" mask="url(#f)" d="M2.674 58.581h33.964V35.528H2.674z"/><path d="M3.282 57.973H36.03V36.136H3.282v21.837zm33.356 1.216H2.674a.608.608 0 0 1-.608-.608V35.528c0-.336.273-.608.608-.608h33.964c.336 0 .608.272.608.608v23.053a.608.608 0 0 1-.608.608z" fill="#1C1919" mask="url(#f)"/><path d="M4.418 42.207a3.81 3.81 0 0 1-3.81-3.81v-10.84h7.62v10.84a3.81 3.81 0 0 1-3.81 3.81" fill="#00B570" mask="url(#f)"/><path d="M1.216 28.165v10.232a3.205 3.205 0 0 0 3.202 3.202 3.205 3.205 0 0 0 3.201-3.202V28.165H1.216zm3.202 14.65A4.423 4.423 0 0 1 0 38.397v-10.84c0-.335.272-.608.608-.608h7.62c.335 0 .607.273.607.608v10.84a4.422 4.422 0 0 1-4.417 4.418z" fill="#1C1919" mask="url(#f)"/><path d="M12.037 42.207a3.81 3.81 0 0 1-3.81-3.81v-10.84h7.62v10.84a3.81 3.81 0 0 1-3.81 3.81" fill="#FFF" mask="url(#f)"/><path d="M8.835 28.165v10.232a3.205 3.205 0 0 0 3.202 3.202 3.205 3.205 0 0 0 3.202-3.202V28.165H8.835zm3.202 14.65a4.423 4.423 0 0 1-4.418-4.418v-10.84c0-.335.273-.608.608-.608h7.62c.335 0 .608.273.608.608v10.84a4.422 4.422 0 0 1-4.418 4.418z" fill="#1C1919" mask="url(#f)"/><path d="M19.656 42.207a3.81 3.81 0 0 1-3.81-3.81v-10.84h7.62v10.84a3.81 3.81 0 0 1-3.81 3.81" fill="#00B570" mask="url(#f)"/><path d="M16.455 28.165v10.232a3.205 3.205 0 0 0 3.202 3.202 3.205 3.205 0 0 0 3.2-3.202V28.165h-6.402zm3.202 14.65a4.423 4.423 0 0 1-4.418-4.418v-10.84c0-.335.272-.608.608-.608h7.619c.335 0 .608.273.608.608v10.84a4.422 4.422 0 0 1-4.417 4.418z" fill="#1C1919" mask="url(#f)"/><path d="M27.276 42.207a3.81 3.81 0 0 1-3.81-3.81v-10.84h7.619v10.84a3.81 3.81 0 0 1-3.81 3.81" fill="#FFF" mask="url(#f)"/><path d="M24.074 28.165v10.232a3.205 3.205 0 0 0 3.202 3.202 3.205 3.205 0 0 0 3.201-3.202V28.165h-6.403zm3.202 14.65a4.423 4.423 0 0 1-4.418-4.418v-10.84c0-.335.272-.608.608-.608h7.62c.335 0 .607.273.607.608v10.84a4.422 4.422 0 0 1-4.417 4.418z" fill="#1C1919" mask="url(#f)"/><path d="M34.895 42.207a3.81 3.81 0 0 1-3.81-3.81v-10.84h7.619v10.84a3.81 3.81 0 0 1-3.81 3.81" fill="#00B570" mask="url(#f)"/><path d="M31.693 28.165v10.232a3.205 3.205 0 0 0 3.202 3.202 3.205 3.205 0 0 0 3.201-3.202V28.165h-6.403zm3.202 14.65a4.423 4.423 0 0 1-4.418-4.418v-10.84c0-.335.272-.608.608-.608h7.62c.335 0 .607.273.607.608v10.84a4.422 4.422 0 0 1-4.417 4.418z" fill="#1C1919" mask="url(#f)"/><path fill="#FFF" mask="url(#f)" d="M7.165 58.581h9.547V45.008H7.165z"/><path d="M7.772 57.973h8.332V45.616H7.772v12.357zm8.94 1.216H7.164a.608.608 0 0 1-.608-.608V45.008c0-.336.272-.608.608-.608h9.548c.336 0 .608.272.608.608v13.573a.608.608 0 0 1-.608.608z" fill="#1C1919" mask="url(#f)"/><path fill="#FFF" mask="url(#f)" d="M19.873 53.688H32.18v-8.68H19.873z"/><path d="M20.481 53.08h11.091v-7.464h-11.09v7.464zm11.7 1.216H19.872a.608.608 0 0 1-.608-.608v-8.68c0-.336.272-.608.608-.608H32.18c.336 0 .608.272.608.608v8.68a.608.608 0 0 1-.608.608z" fill="#1C1919" mask="url(#f)"/><path d="M28.205 14.618l-2.69 2.692-5.904 5.904a.125.125 0 0 1-.138.027l-.012-.008-5.88-5.88c-.007-.005-.007-.009-.01-.013l-2.695-2.69a4.246 4.246 0 0 1 3.007-7.25c1.09 0 2.182.412 3.011 1.245l2.629 2.63 2.66-2.66a4.233 4.233 0 0 1 3.011-1.246 4.246 4.246 0 0 1 3.01 7.25" fill="#00B76F" mask="url(#f)"/><path d="M14.05 16.961l5.477 5.477 8.248-8.25a3.642 3.642 0 0 0-2.581-6.211c-.98 0-1.895.38-2.58 1.067l-3.091 3.091-3.06-3.06a3.614 3.614 0 0 0-2.58-1.067c-.975 0-1.89.379-2.577 1.067a3.613 3.613 0 0 0-1.066 2.572c0 .972.378 1.885 1.066 2.572l2.745 2.742zm5.473 6.898a.732.732 0 0 1-.285-.058l-.11-.046-.097-.092-8.585-8.584a4.82 4.82 0 0 1-1.422-3.432c0-1.296.505-2.515 1.422-3.432a4.827 4.827 0 0 1 3.437-1.423c1.305 0 2.527.506 3.442 1.424l2.198 2.2 2.23-2.232a4.82 4.82 0 0 1 3.44-1.424c1.302 0 2.524.506 3.442 1.424a4.822 4.822 0 0 1 1.421 3.432 4.822 4.822 0 0 1-1.421 3.433l-8.594 8.594a.731.731 0 0 1-.518.216z" fill="#000" mask="url(#f)"/><path fill="#A9BCC7" mask="url(#f)" d="M102.974 58.416h33.231l-2.231-38.137h-28.77z"/><path d="M103.618 57.808h31.943l-2.16-36.92h-27.623l-2.16 36.92zm32.587 1.217h-33.231a.61.61 0 0 1-.608-.644l2.231-38.138a.608.608 0 0 1 .607-.572h28.77c.322 0 .588.251.607.572l2.232 38.138a.61.61 0 0 1-.608.644z" fill="#1C1919" mask="url(#f)"/><path d="M128.457 23.348a.608.608 0 0 1-.608-.608c0-4.798-3.64-8.7-8.112-8.7-4.473 0-8.112 3.902-8.112 8.7a.608.608 0 0 1-1.216 0c0-5.468 4.184-9.916 9.328-9.916 5.143 0 9.328 4.448 9.328 9.916a.608.608 0 0 1-.608.608" fill="#1C1919" mask="url(#f)"/><path d="M128.457 23.644a.727.727 0 1 0 .002 1.454.727.727 0 0 0-.002-1.454m0 2.669a1.945 1.945 0 0 1-1.942-1.943c0-1.07.871-1.942 1.942-1.942 1.07 0 1.942.871 1.942 1.942a1.945 1.945 0 0 1-1.942 1.943M111.018 23.644a.727.727 0 1 0 .001 1.454.727.727 0 0 0-.001-1.454m0 2.669a1.945 1.945 0 0 1-1.943-1.943c0-1.07.872-1.942 1.943-1.942 1.07 0 1.942.871 1.942 1.942a1.945 1.945 0 0 1-1.942 1.943" fill="#1C1919" mask="url(#f)"/><path d="M106.243 54.125h-75.39V4.45a3.37 3.37 0 0 1 3.37-3.372h68.65a3.37 3.37 0 0 1 3.37 3.372v49.675z" fill="#D1E5F0" mask="url(#f)"/><path d="M31.46 53.517h74.175V4.45a2.766 2.766 0 0 0-2.763-2.764H34.223a2.766 2.766 0 0 0-2.762 2.764v49.067zm75.391 1.216H30.245V4.45A3.984 3.984 0 0 1 34.223.47h68.65a3.984 3.984 0 0 1 3.978 3.98v50.283z" fill="#1C1919" mask="url(#f)"/><path fill="#FFF" mask="url(#f)" d="M34.847 50.03h67.015V5.155H34.847z"/><path d="M35.455 49.421h65.799V5.764H35.455v43.657zm66.407 1.217H34.847a.608.608 0 0 1-.608-.609V5.156c0-.336.273-.608.608-.608h67.015c.335 0 .608.272.608.608v44.873a.608.608 0 0 1-.608.609z" fill="#1C1919" mask="url(#f)"/><path d="M113.472 58.509H23.01a4.987 4.987 0 0 1-4.988-4.988v-1.18h100.477v1.14a5.027 5.027 0 0 1-5.027 5.028" fill="#D1E5F0" mask="url(#f)"/><path d="M18.63 52.949v.572a4.385 4.385 0 0 0 4.38 4.38h90.462a4.424 4.424 0 0 0 4.419-4.42v-.532H18.63zm94.842 6.168H23.01a5.602 5.602 0 0 1-5.596-5.596v-1.788h101.693v1.748a5.642 5.642 0 0 1-5.635 5.636z" fill="#1C1919" mask="url(#f)"/><path d="M72.678 55.225h-7.797a2.838 2.838 0 0 1-2.837-2.837h13.472a2.838 2.838 0 0 1-2.838 2.837" fill="#FFF" mask="url(#f)"/><path d="M62.736 52.996a2.233 2.233 0 0 0 2.145 1.621h7.797c1.02 0 1.88-.686 2.145-1.621H62.736zm9.942 2.837h-7.797a3.45 3.45 0 0 1-3.445-3.445c0-.336.272-.609.608-.609h13.471c.336 0 .608.273.608.609a3.45 3.45 0 0 1-3.445 3.445z" fill="#1C1919" mask="url(#f)"/><path d="M52.043 23.529a4.41 4.41 0 0 1-4.405-4.406 4.41 4.41 0 0 1 4.405-4.405c1.192 0 2.273.477 3.067 1.25l4.428-4.558a10.721 10.721 0 0 0-7.495-3.05c-5.934 0-10.762 4.828-10.762 10.763 0 5.936 4.828 10.765 10.762 10.765 1.046 0 2.056-.153 3.012-.432l-1.78-6.105a4.387 4.387 0 0 1-1.232.178" fill="#D1E5F0" mask="url(#f)"/><path d="M52.043 8.967c-5.599 0-10.154 4.556-10.154 10.156 0 5.6 4.555 10.157 10.154 10.157.758 0 1.513-.085 2.253-.255l-1.444-4.956c-.269.046-.539.068-.809.068a5.018 5.018 0 0 1-5.013-5.014 5.02 5.02 0 0 1 5.013-5.014c1.104 0 2.16.36 3.03 1.024l3.593-3.698a10.08 10.08 0 0 0-6.623-2.468m0 21.53c-6.27 0-11.37-5.103-11.37-11.374 0-6.27 5.1-11.372 11.37-11.372 2.97 0 5.783 1.145 7.92 3.223l.436.423-5.277 5.43-.436-.424a3.772 3.772 0 0 0-2.643-1.077 3.802 3.802 0 0 0-3.797 3.797 3.801 3.801 0 0 0 3.797 3.797c.354 0 .712-.05 1.062-.153l.584-.17 2.12 7.272-.583.17a11.339 11.339 0 0 1-3.183.458" fill="#1C1919" mask="url(#f)"/><path d="M59.538 11.41l-4.428 4.557a4.392 4.392 0 0 1 .53 5.692l5.194 3.662a10.733 10.733 0 0 0-1.295-13.912" fill="#A9BCC7" mask="url(#f)"/><path d="M56.457 21.492l4.217 2.972a10.071 10.071 0 0 0 1.524-5.34c0-2.558-.94-4.965-2.66-6.842l-3.593 3.699a4.962 4.962 0 0 1 1.11 3.143c0 .832-.204 1.64-.598 2.368m4.376 4.438a.601.601 0 0 1-.35-.112l-5.194-3.662a.61.61 0 0 1-.147-.848c.457-.645.698-1.4.698-2.184 0-1.03-.41-1.997-1.154-2.72a.608.608 0 0 1-.012-.86l4.429-4.558a.606.606 0 0 1 .86-.013 11.28 11.28 0 0 1 3.45 8.15c0 2.357-.72 4.621-2.083 6.55a.605.605 0 0 1-.497.257" fill="#1C1919" mask="url(#f)"/><path d="M53.275 23.35l1.78 6.106c2.363-.69 4.39-2.17 5.779-4.135l-5.195-3.662a4.42 4.42 0 0 1-2.364 1.691" fill="#FFF" mask="url(#f)"/><path d="M54.019 23.728l1.444 4.955a10.224 10.224 0 0 0 4.508-3.226l-4.216-2.972a5.06 5.06 0 0 1-1.736 1.243m1.036 6.335a.606.606 0 0 1-.584-.437l-1.78-6.105a.608.608 0 0 1 .414-.754 3.823 3.823 0 0 0 2.038-1.459.606.606 0 0 1 .846-.146l5.195 3.663a.606.606 0 0 1 .147.848 11.437 11.437 0 0 1-6.105 4.366.59.59 0 0 1-.171.024M41.49 37.627h24.175v-1.216H41.49zM41.49 41.322h24.175v-1.216H41.49zM41.49 45.017h12.088v-1.216H41.489zM71.072 9.522h24.175V8.306H71.072zM71.072 13.216h24.175V12H71.072zM71.072 16.91H83.16v-1.216H71.072z" fill="#1C1919" mask="url(#f)"/><path fill="#A9BCC7" mask="url(#f)" d="M71.982 46.189h4.295v-19.52h-4.295z"/><path d="M72.59 45.58h3.079V27.277h-3.08v18.305zm3.687 1.217h-4.295a.608.608 0 0 1-.608-.608v-19.52c0-.336.272-.609.608-.609h4.295c.335 0 .608.273.608.608v19.52a.608.608 0 0 1-.608.609z" fill="#1C1919" mask="url(#f)"/><path fill="#D1E5F0" mask="url(#f)" d="M78.928 46.189h4.296V23.08h-4.296z"/><path d="M79.536 45.58h3.08V23.69h-3.08V45.58zm-1.216 1.217h5.512V22.472H78.32v24.325z" fill="#1C1919" mask="url(#f)"/><path fill="#A9BCC7" mask="url(#f)" d="M85.875 46.189h4.295V33.013h-4.295z"/><path d="M86.483 45.58h3.079V33.622h-3.08v11.96zm3.687 1.217h-4.295a.608.608 0 0 1-.608-.608V33.013c0-.336.272-.608.608-.608h4.295c.336 0 .607.272.607.608v13.176a.608.608 0 0 1-.607.608z" fill="#1C1919" mask="url(#f)"/><path fill="#D1E5F0" mask="url(#f)" d="M92.821 46.189h4.295v-6.212h-4.295z"/><path d="M93.43 45.58h3.078v-4.995h-3.079v4.996zm-1.217 1.217h5.511v-7.428h-5.51v7.428z" fill="#1C1919" mask="url(#f)"/><path fill="#FFF" mask="url(#f)" d="M2.674 58.581h33.964V35.528H2.674z"/><path d="M3.282 57.973H36.03V36.136H3.282v21.837zm33.356 1.216H2.674a.608.608 0 0 1-.608-.608V35.528c0-.336.273-.608.608-.608h33.964c.336 0 .608.272.608.608v23.053a.608.608 0 0 1-.608.608z" fill="#1C1919" mask="url(#f)"/><path d="M4.418 42.207a3.81 3.81 0 0 1-3.81-3.81v-10.84h7.62v10.84a3.81 3.81 0 0 1-3.81 3.81" fill="#00B570" mask="url(#f)"/><path d="M1.216 28.165v10.232a3.205 3.205 0 0 0 3.202 3.202 3.205 3.205 0 0 0 3.201-3.202V28.165H1.216zm3.202 14.65A4.423 4.423 0 0 1 0 38.397v-10.84c0-.335.272-.608.608-.608h7.62c.335 0 .607.273.607.608v10.84a4.422 4.422 0 0 1-4.417 4.418z" fill="#1C1919" mask="url(#f)"/><path d="M12.037 42.207a3.81 3.81 0 0 1-3.81-3.81v-10.84h7.62v10.84a3.81 3.81 0 0 1-3.81 3.81" fill="#FFF" mask="url(#f)"/><path d="M8.835 28.165v10.232a3.205 3.205 0 0 0 3.202 3.202 3.205 3.205 0 0 0 3.202-3.202V28.165H8.835zm3.202 14.65a4.423 4.423 0 0 1-4.418-4.418v-10.84c0-.335.273-.608.608-.608h7.62c.335 0 .608.273.608.608v10.84a4.422 4.422 0 0 1-4.418 4.418z" fill="#1C1919" mask="url(#f)"/><path d="M19.656 42.207a3.81 3.81 0 0 1-3.81-3.81v-10.84h7.62v10.84a3.81 3.81 0 0 1-3.81 3.81" fill="#00B570" mask="url(#f)"/><path d="M16.455 28.165v10.232a3.205 3.205 0 0 0 3.202 3.202 3.205 3.205 0 0 0 3.2-3.202V28.165h-6.402zm3.202 14.65a4.423 4.423 0 0 1-4.418-4.418v-10.84c0-.335.272-.608.608-.608h7.619c.335 0 .608.273.608.608v10.84a4.422 4.422 0 0 1-4.417 4.418z" fill="#1C1919" mask="url(#f)"/><path d="M27.276 42.207a3.81 3.81 0 0 1-3.81-3.81v-10.84h7.619v10.84a3.81 3.81 0 0 1-3.81 3.81" fill="#FFF" mask="url(#f)"/><path d="M24.074 28.165v10.232a3.205 3.205 0 0 0 3.202 3.202 3.205 3.205 0 0 0 3.201-3.202V28.165h-6.403zm3.202 14.65a4.423 4.423 0 0 1-4.418-4.418v-10.84c0-.335.272-.608.608-.608h7.62c.335 0 .607.273.607.608v10.84a4.422 4.422 0 0 1-4.417 4.418z" fill="#1C1919" mask="url(#f)"/><path d="M34.895 42.207a3.81 3.81 0 0 1-3.81-3.81v-10.84h7.619v10.84a3.81 3.81 0 0 1-3.81 3.81" fill="#00B570" mask="url(#f)"/><path d="M31.693 28.165v10.232a3.205 3.205 0 0 0 3.202 3.202 3.205 3.205 0 0 0 3.201-3.202V28.165h-6.403zm3.202 14.65a4.423 4.423 0 0 1-4.418-4.418v-10.84c0-.335.272-.608.608-.608h7.62c.335 0 .607.273.607.608v10.84a4.422 4.422 0 0 1-4.417 4.418z" fill="#1C1919" mask="url(#f)"/><path fill="#FFF" mask="url(#f)" d="M7.165 58.581h9.547V45.008H7.165z"/><path d="M7.772 57.973h8.332V45.616H7.772v12.357zm8.94 1.216H7.164a.608.608 0 0 1-.608-.608V45.008c0-.336.272-.608.608-.608h9.548c.336 0 .608.272.608.608v13.573a.608.608 0 0 1-.608.608z" fill="#1C1919" mask="url(#f)"/><path fill="#FFF" mask="url(#f)" d="M19.873 53.688H32.18v-8.68H19.873z"/><path d="M20.481 53.08h11.091v-7.464h-11.09v7.464zm11.7 1.216H19.872a.608.608 0 0 1-.608-.608v-8.68c0-.336.272-.608.608-.608H32.18c.336 0 .608.272.608.608v8.68a.608.608 0 0 1-.608.608z" fill="#1C1919" mask="url(#f)"/><path d="M28.205 14.618l-2.69 2.692-5.904 5.904a.125.125 0 0 1-.138.027l-.012-.008-5.88-5.88c-.007-.005-.007-.009-.01-.013l-2.695-2.69a4.246 4.246 0 0 1 3.007-7.25c1.09 0 2.182.412 3.011 1.245l2.629 2.63 2.66-2.66a4.233 4.233 0 0 1 3.011-1.246 4.246 4.246 0 0 1 3.01 7.25" fill="#00B76F" mask="url(#f)"/><path d="M14.05 16.961l5.477 5.477 8.248-8.25a3.642 3.642 0 0 0-2.581-6.211c-.98 0-1.895.38-2.58 1.067l-3.091 3.091-3.06-3.06a3.614 3.614 0 0 0-2.58-1.067c-.975 0-1.89.379-2.577 1.067a3.613 3.613 0 0 0-1.066 2.572c0 .972.378 1.885 1.066 2.572l2.745 2.742zm5.473 6.898a.732.732 0 0 1-.285-.058l-.11-.046-.097-.092-8.585-8.584a4.82 4.82 0 0 1-1.422-3.432c0-1.296.505-2.515 1.422-3.432a4.827 4.827 0 0 1 3.437-1.423c1.305 0 2.527.506 3.442 1.424l2.198 2.2 2.23-2.232a4.82 4.82 0 0 1 3.44-1.424c1.302 0 2.524.506 3.442 1.424a4.822 4.822 0 0 1 1.421 3.432 4.822 4.822 0 0 1-1.421 3.433l-8.594 8.594a.731.731 0 0 1-.518.216z" fill="#000" mask="url(#f)"/></g></g></svg>