<svg width="94" height="94" viewBox="0 0 94 94" fill="none" xmlns="http://www.w3.org/2000/svg">
<g clip-path="url(#clip0)">
<path d="M19.035 33.6558C19.0497 32.355 19.7225 31.7955 21.0682 31.7955C23.0868 31.7815 25.0907 31.7955 27.1093 31.7955C29.084 31.7955 31.044 31.7955 33.0187 31.7955C34.5838 31.7955 34.9495 32.1592 34.9788 33.6419C35.008 35.6281 34.9203 37.6143 35.0958 39.6005C35.2128 40.9992 35.2421 42.4119 35.2274 43.8247C35.2274 44.8038 34.4668 45.3773 33.4868 45.1814C31.5121 44.8038 29.5228 45.0695 27.5335 45.0136C27.08 44.9996 26.8167 45.2514 26.8167 45.685C26.8167 48.2447 26.8167 50.8184 26.8167 53.378C26.8167 53.7697 27.0215 54.0215 27.4165 54.1194C30.1518 54.7628 32.8871 55.4062 35.6224 56.0496C36.0758 56.1615 36.3099 55.9657 36.3245 55.5321C36.3391 55.0006 36.3245 54.4691 36.3391 53.9235C36.3684 53.3361 36.0905 53.0563 35.4615 53.0703C34.4961 53.0843 33.5453 53.0843 32.5799 53.0703C31.6291 53.0563 31.2634 52.7206 31.2488 51.8394C31.2342 50.3008 31.2342 48.7622 31.2488 47.2236C31.2634 46.3844 31.5999 46.0487 32.4775 46.0487C34.5107 46.0347 36.5439 46.0347 38.5771 46.0487C39.367 46.0487 39.6595 46.3144 39.6595 47.0557C39.6595 48.3985 39.6741 49.7553 39.8204 51.0841C39.9228 52.0213 39.484 52.8885 39.4401 53.7837C39.3523 55.3223 39.4255 56.8609 39.4109 58.3995C39.4109 58.987 39.6449 59.2667 40.2739 59.2667C42.19 59.2527 44.1208 59.2527 46.037 59.2667C46.6514 59.2667 46.9439 59.0429 46.9293 58.4275C46.9147 56.763 46.9147 55.0985 46.9293 53.42C46.9293 52.8325 46.6806 52.5528 46.0516 52.5668C45.0716 52.5808 44.077 52.5947 43.0969 52.5528C41.9999 52.5108 41.4294 51.9653 41.4294 50.9303C41.4148 47.6152 41.4148 44.3002 41.4294 40.9852C41.4294 40.0201 42.073 39.2928 43.0677 39.2788C47.3388 39.2368 51.61 39.2368 55.8812 39.2788C56.7881 39.2928 57.3293 39.9921 57.3 40.8454C57.2123 43.5169 57.3878 46.1885 57.4902 48.8461C57.5194 49.7273 57.5194 50.5946 57.5048 51.4758C57.5048 52.0492 57.2269 52.5108 56.6418 52.6367C55.9104 52.7906 55.7642 53.2102 55.7642 53.8536C55.7788 55.9517 55.7788 58.0498 55.7642 60.1339C55.7495 61.4627 55.1206 62.0502 53.7456 62.0642C52.7656 62.0782 51.7709 62.0642 50.7909 62.0782C50.4398 62.0782 50.1327 62.1341 50.0156 62.5398C49.7524 63.5189 50.0303 64.3022 50.864 64.9036C51.3467 65.2533 51.8294 65.603 52.2975 65.9527C52.7948 66.3164 53.3214 66.4283 53.9211 66.1765C55.969 65.3233 58.0314 64.498 60.0939 63.6588C60.5619 63.4769 60.7375 63.1692 60.7228 62.7076C60.7082 61.9103 60.7082 61.127 60.7228 60.3298C60.7228 59.8822 60.6058 59.5465 60.0939 59.4066C59.6258 59.2667 59.3917 58.917 59.3917 58.4275C59.3917 56.777 59.3771 55.1404 59.4064 53.4899C59.421 52.8046 59.7721 52.4549 60.4888 52.4409C62.6097 52.4129 64.7307 52.4269 66.8663 52.4409C67.4221 52.4409 67.7732 52.7346 67.7878 53.2522C67.8609 55.0705 67.9195 56.8749 67.9341 58.6932C67.9341 59.3507 67.5684 59.6164 66.8809 59.5325C66.1203 59.4486 65.3597 59.4626 64.5991 59.4626C63.8092 59.4765 63.6775 59.6024 63.6629 60.3717C63.6483 61.4348 63.6044 62.5118 63.6775 63.5748C63.7507 64.7778 63.2241 65.4631 62.0685 65.9247C59.7574 66.8619 57.4902 67.855 55.1498 68.7222C54.6086 68.918 54.3892 69.2397 54.3892 69.7852C54.4038 72.5407 54.4038 75.2963 54.3746 78.0658C54.3453 79.0449 53.6432 79.5764 52.6339 79.4365C51.8587 79.3246 51.4637 78.863 51.4491 77.9818C51.4345 75.3102 51.4491 72.6387 51.4345 69.9671C51.4345 69.5894 51.4637 69.1698 51.1127 68.904C50.1473 68.2047 49.2404 67.4354 48.1287 66.9598C47.3535 66.6381 46.9732 66.1065 46.9293 65.3512C46.8854 64.6659 46.9 63.9805 46.9 63.2951C46.8854 62.232 46.8123 62.1481 45.7298 62.1481C43.3163 62.1481 40.9028 62.1621 38.4893 62.1481C36.9681 62.1341 36.3684 61.5607 36.3099 60.1339C36.266 59.1968 36.2221 59.1688 35.286 58.917C32.1996 58.1058 29.084 57.4484 25.9684 56.721C24.1985 56.3014 23.8182 55.8398 23.8182 54.0914C23.8182 51.4618 23.8182 48.8321 23.8182 46.2025C23.8182 44.9996 23.7743 44.9576 22.4871 44.9576C22.019 44.9576 21.5509 44.9576 21.0828 44.9576C19.6201 44.9437 19.0497 44.4821 19.0204 43.0973C18.9911 39.9781 18.9911 36.817 19.035 33.6558ZM61.147 57.2525C61.147 57.6442 61.3811 57.826 61.7906 57.826C62.4196 57.812 63.0339 57.826 63.6629 57.826C63.6629 57.84 63.6629 57.84 63.6629 57.854C64.2919 57.854 64.9062 57.854 65.5352 57.854C65.9594 57.854 66.2227 57.6442 66.2081 57.2246C66.1788 56.3713 66.1203 55.5181 66.0764 54.6649C66.0618 54.3432 65.8424 54.1473 65.506 54.1473C64.2626 54.1334 63.0047 54.1334 61.7614 54.1473C61.3957 54.1473 61.1616 54.3432 61.1616 54.7068C61.1324 55.5321 61.1324 56.3993 61.147 57.2525ZM49.9864 55.9377C49.9864 56.791 50.001 57.6442 49.9864 58.4974C49.9864 59.001 50.2204 59.2388 50.747 59.2527C53.0581 59.2807 52.7948 59.3786 52.7948 57.4344C52.7948 56.1056 52.7802 54.7908 52.7948 53.462C52.8095 52.8465 52.5462 52.5808 51.8879 52.5668C49.9718 52.5248 49.9718 52.5108 49.9718 54.3432C49.9864 54.8747 49.9864 55.4062 49.9864 55.9377ZM49.4013 49.6294C50.7616 49.6294 52.122 49.6154 53.4823 49.6434C54.1113 49.6574 54.4477 49.4336 54.4185 48.7902C54.3307 46.8319 54.2429 44.8597 54.2722 42.9015C54.2868 42.4259 54.0381 42.1881 53.5262 42.1881C50.7178 42.1881 47.8947 42.1881 45.0862 42.1881C44.5889 42.1881 44.3549 42.4399 44.3549 42.9015C44.3549 44.9157 44.3549 46.9159 44.3549 48.9301C44.3549 49.4476 44.6621 49.6434 45.174 49.6434C46.5782 49.6294 47.9824 49.6294 49.4013 49.6294ZM37.2314 51.4198C37.7872 51.4338 38.0651 51.196 38.0359 50.6505C37.992 49.8672 37.9481 49.0699 37.8896 48.2866C37.8604 47.895 37.6263 47.7132 37.2314 47.6992C36.0319 47.6852 34.8179 47.6992 33.6184 47.6992C33.1943 47.6992 32.9456 47.923 32.9456 48.3286C32.931 49.1399 32.9456 49.9511 32.9456 50.7624C32.9456 51.21 33.2235 51.4058 33.677 51.4058C34.2767 51.4058 34.8764 51.4058 35.4907 51.4058C36.0758 51.4198 36.6463 51.4198 37.2314 51.4198ZM22.0775 41.251C22.0775 42.0483 22.2091 42.1742 23.0575 42.1742C24.4179 42.1881 25.7782 42.1742 27.1385 42.1742C28.5281 42.1742 29.9031 42.1742 31.2927 42.1742C31.8778 42.1742 32.1703 41.9364 32.1118 41.3629C31.8924 39.4326 32.0972 37.4744 31.8924 35.5441C31.8047 34.7469 31.7462 34.621 30.8978 34.607C28.2795 34.593 25.6758 34.593 23.0575 34.607C22.2091 34.607 22.0775 34.7329 22.0775 35.5441C22.0775 37.4464 22.0775 39.3487 22.0775 41.251Z" fill="#303396"/>
<path d="M20.1666 78.8621C20.1666 78.2336 20.6761 77.7241 21.3046 77.7241H68.0228C68.6513 77.7241 69.1608 78.2336 69.1608 78.8621C69.1608 79.4905 68.6513 80 68.0228 80H21.3046C20.6761 80 20.1666 79.4905 20.1666 78.8621Z" fill="#303396"/>
<path d="M61.1616 51.028C59.421 51.014 58.8652 50.4825 58.8652 48.846C58.8652 45.8107 58.8652 42.7755 58.8652 39.7402C58.8652 38.3275 59.5088 37.712 61.0007 37.712C62.9462 37.698 64.8916 37.712 66.837 37.712C68.8995 37.712 70.9473 37.698 73.0098 37.712C75.3062 37.74 74.5895 39.4744 74.7065 40.9991C74.7943 43.9084 74.9113 46.8038 74.9991 49.7132C75.0283 50.6783 74.3701 51.2238 73.3608 51.1259C72.688 51.056 72.0297 51.028 71.3569 51.028C67.9487 51.028 64.5552 51.042 61.1616 51.028ZM70.8742 48.0907C71.7518 48.0907 71.8688 47.9648 71.8688 47.1115C71.8688 45.2093 71.664 43.321 71.7225 41.4187C71.7372 40.8872 71.4739 40.6494 70.9034 40.6494C69.4992 40.6634 68.095 40.6494 66.6908 40.6494C65.3743 40.6494 64.0578 40.6354 62.7414 40.6494C61.9515 40.6494 61.8052 40.7892 61.8052 41.5586C61.7906 43.4189 61.7906 45.2792 61.8052 47.1255C61.8052 47.9508 61.9661 48.0907 62.8292 48.0907C65.5206 48.0907 68.1974 48.0907 70.8742 48.0907Z" fill="#303396"/>
<path d="M42.3656 29.3477C41.9707 29.2497 41.5758 29.2218 41.1662 29.2218C39.4694 29.2218 37.7727 29.2218 36.0759 29.2218C34.0135 29.2218 31.9656 29.2358 29.9032 29.2078C28.5136 29.2358 28.2211 28.2007 28.2503 27.0677C28.2503 24.1024 28.2503 21.1231 28.2503 18.1578C28.2503 16.6052 28.8647 16.0177 30.4737 16.0177C32.4337 16.0177 34.4084 16.0177 36.3685 16.0177C38.4455 16.0177 40.5226 16.0037 42.5997 16.0177C43.6528 16.0317 44.1794 16.6052 44.1648 17.6123C44.2379 20.0041 44.1209 22.3959 44.3111 24.7878C44.4135 25.7669 44.355 26.746 44.4281 27.7251C44.5451 29.0399 43.6967 29.6694 42.3656 29.3477ZM41.2686 25.5011C41.2393 23.5149 41.1808 21.5287 41.137 19.5425C41.1223 19.0669 40.8883 18.8292 40.391 18.8292C37.6264 18.8292 34.8472 18.8292 32.0827 18.8292C31.5853 18.8292 31.3367 19.053 31.3367 19.5285C31.3367 21.5847 31.3367 23.6268 31.3367 25.683C31.3367 26.2145 31.6438 26.3963 32.1558 26.3963C33.5454 26.3963 34.9204 26.3963 36.31 26.3963C37.6557 26.3963 38.9867 26.4103 40.3325 26.3963C41.137 26.3963 41.2832 26.2564 41.2686 25.5011Z" fill="#303396"/>
<path d="M43.9453 37.7402C42.8775 37.7262 41.7951 37.7402 40.7273 37.7402C40.7273 37.7262 40.7273 37.6982 40.7273 37.6842C39.6595 37.6842 38.5771 37.6982 37.5093 37.6842C36.7926 37.6703 36.3538 37.3346 36.3391 36.6911C36.2953 34.9987 36.3099 33.3202 36.3391 31.6277C36.3538 31.0822 36.6902 30.6766 37.3045 30.6626C39.5133 30.6486 41.722 30.6486 43.9307 30.6626C44.3988 30.6626 44.6913 30.9423 44.7059 31.3899C44.8083 33.2503 44.94 35.0966 44.8522 36.9569C44.8376 37.5024 44.5304 37.7542 43.9453 37.7402ZM43.0384 32.9565C42.9653 32.5229 42.7459 32.2991 42.2924 32.2991C41.1369 32.2991 39.9667 32.2991 38.8112 32.2991C38.3138 32.2991 38.0505 32.5089 38.0505 32.9985C38.0505 33.7678 38.0505 34.5371 38.0505 35.3064C38.0505 35.8239 38.3285 36.0337 38.8404 36.0337C39.4401 36.0337 40.0398 36.0337 40.6542 36.0337C41.2393 36.0337 41.8097 36.0337 42.3948 36.0337C42.8922 36.0337 43.1408 35.8099 43.1408 35.3344C43.1555 34.5231 43.1555 33.7398 43.0384 32.9565Z" fill="#303396"/>
<path d="M60.3865 36.4113C59.9184 36.2994 59.4649 36.2715 58.9969 36.2715C55.3985 36.2715 51.8002 36.2715 48.2019 36.2715C46.7099 36.2715 46.2419 35.8239 46.2419 34.3832C46.2419 31.264 46.2419 28.1448 46.2419 25.0256C46.2419 23.5849 46.7977 23.0814 48.3189 23.0674C50.279 23.0674 52.2537 23.0674 54.2137 23.0674C56.1592 23.0674 58.1046 23.0674 60.05 23.0674C61.7468 23.0674 62.054 23.3751 62.0686 24.9697C62.0832 26.7041 62.0393 28.4245 62.171 30.159C62.3026 31.7815 62.3173 33.4041 62.3173 35.0266C62.3173 36.1456 61.5274 36.6911 60.3865 36.4113ZM59.2455 32.7187C59.0261 30.7185 59.2309 28.7043 59.0407 26.7041C58.9822 26.1166 58.7189 25.8788 58.1046 25.8788C55.4424 25.8928 52.7803 25.8928 50.1327 25.8788C49.4891 25.8788 49.1966 26.1026 49.1966 26.7461C49.2112 28.6903 49.2112 30.6346 49.1966 32.5788C49.1966 33.2082 49.4452 33.474 50.1035 33.46C51.4638 33.446 52.8241 33.46 54.1991 33.46C55.6033 33.46 57.0076 33.46 58.4264 33.46C58.9384 33.46 59.304 33.2782 59.2455 32.7187Z" fill="#303396"/>
<path d="M71.0498 35.1525C70.0405 35.1385 69.0458 35.1525 68.0365 35.1525C68.0365 35.1385 68.0365 35.1246 68.0365 35.1106C66.9834 35.1106 65.9302 35.1246 64.8917 35.1106C63.9555 35.0966 63.5752 34.7329 63.5606 33.8657C63.546 32.3271 63.546 30.7885 63.5606 29.2498C63.5752 28.3407 63.9116 28.005 64.8624 27.977C66.8517 27.935 68.841 27.949 70.8304 27.991C71.4008 28.005 71.942 28.2148 71.9713 28.8582C72.0444 30.6766 72.1029 32.4809 72.1176 34.2993C72.1029 34.9287 71.7519 35.1525 71.0498 35.1525ZM70.2599 30.4388C70.2599 29.8933 70.0259 29.5995 69.4261 29.6135C68.3145 29.6275 67.2028 29.6135 66.0765 29.6135C65.5645 29.6135 65.272 29.8093 65.272 30.3269C65.272 31.1381 65.272 31.9494 65.272 32.7607C65.272 33.2363 65.5353 33.4601 66.018 33.4601C66.6177 33.4601 67.2174 33.4601 67.8171 33.4601C68.4461 33.4601 69.0604 33.4601 69.6894 33.4601C70.1282 33.4601 70.333 33.2502 70.3038 32.8166C70.2891 32.0054 70.2599 31.2221 70.2599 30.4388Z" fill="#303396"/>
<path d="M26.3341 30.7466C25.6174 30.7606 24.9007 30.7466 24.1985 30.7466V30.7326C23.4233 30.7326 22.6334 30.7466 21.8582 30.7326C21.317 30.7186 20.9367 30.4528 20.922 29.9213C20.8928 28.7324 20.8928 27.5295 20.922 26.3406C20.9367 25.851 21.2438 25.5293 21.7704 25.5293C23.3063 25.5153 24.8421 25.5153 26.3926 25.5293C26.8607 25.5293 27.1533 25.7811 27.1533 26.2426C27.1533 27.4316 27.3727 28.6205 27.2995 29.8234C27.2703 30.5368 27.0801 30.7326 26.3341 30.7466ZM25.1639 26.8021C24.8129 26.7462 24.4472 26.7882 24.0962 26.7882C22.297 26.7742 22.297 26.7742 22.3409 28.5086C22.3555 29.3478 22.4725 29.4737 23.3502 29.4737C23.9499 29.4877 24.5496 29.4877 25.1493 29.4597C25.9831 29.4318 25.8807 28.8023 25.8222 28.3268C25.7637 27.7813 26.2464 26.956 25.1639 26.8021Z" fill="#303396"/>
<path d="M53.453 21.193C52.3999 21.179 51.3613 21.193 50.3082 21.193C50.3082 21.179 50.3082 21.151 50.3082 21.1371C49.2404 21.1371 48.158 21.151 47.0902 21.1371C46.2272 21.1231 45.8469 20.7734 45.8469 19.9621C45.8322 18.4095 45.8322 16.8429 45.8469 15.2903C45.8615 14.507 46.2418 14.0455 47.0609 14.0315C49.1087 13.9895 51.1712 13.9895 53.219 14.0315C53.9504 14.0455 54.2722 14.4091 54.2722 15.1085C54.2722 16.6611 54.3307 18.2277 54.4184 19.7803C54.4331 20.4377 54.3746 21.235 53.453 21.193ZM52.5315 16.3953C52.5169 15.9897 52.2975 15.7659 51.8587 15.7519C50.6592 15.7519 49.4452 15.7519 48.2457 15.7519C47.8069 15.7519 47.5875 15.9757 47.5729 16.3953C47.5729 17.2066 47.5729 18.0179 47.5729 18.8291C47.5729 19.2488 47.8069 19.4586 48.2457 19.4586C48.8747 19.4586 49.489 19.4586 50.118 19.4586C50.7177 19.4586 51.3175 19.4586 51.9318 19.4586C52.4291 19.4586 52.6778 19.2348 52.6485 18.7452C52.6193 17.9619 52.5754 17.1786 52.5315 16.3953Z" fill="#303396"/>
<path d="M61.2641 22.0743C60.5474 22.0463 59.8306 22.0743 59.1139 22.0743C59.1139 22.0603 59.1139 22.0463 59.1139 22.0323C58.3387 22.0323 57.5488 22.0323 56.7735 22.0323C56.1885 22.0323 55.8228 21.7386 55.8081 21.1791C55.7789 20.0041 55.7935 18.8292 55.8228 17.6542C55.8374 17.1367 56.1738 16.815 56.7297 16.801C58.2509 16.787 59.7721 16.787 61.2934 16.801C61.7322 16.801 62.0394 17.0248 62.054 17.4584C62.0832 18.7453 62.3027 20.0181 62.2003 21.291C62.1418 21.8365 61.8492 22.0882 61.2641 22.0743ZM60.7375 19.1789C60.7375 18.1298 60.6498 18.0599 59.5527 18.0599C59.0115 18.0599 58.4849 18.0599 57.9437 18.0739C57.4757 18.0739 57.2416 18.2977 57.2416 18.7453C57.1831 20.5776 57.0368 20.8154 59.0847 20.7594C61.0593 20.7594 60.7229 20.7874 60.7375 19.1789Z" fill="#303396"/>
</g>
<defs>
<clipPath id="clip0">
<rect width="76" height="76" fill="white" transform="matrix(-0.965926 0.258819 0.258819 0.965926 73.4104 0)"/>
</clipPath>
</defs>
</svg>
